<svg xmlns="http://www.w3.org/2000/svg" xmlns:xlink="http://www.w3.org/1999/xlink" viewBox="0 0 1129.98 796.72"><defs><linearGradient id="a" x1="291.73" y1="2468.72" x2="291.73" y2="2058.72" gradientTransform="matrix(-1, 0, 0, 1, 1176.98, -1662.72)" gradientUnits="userSpaceOnUse"><stop offset="0" stop-color="gray" stop-opacity="0.25"/><stop offset="0.54" stop-color="gray" stop-opacity="0.12"/><stop offset="1" stop-color="gray" stop-opacity="0.1"/></linearGradient></defs><title>controllers_empty_image</title><path d="M656.5,142.6c-72.4-2.5-141.4-25.9-207.3-51.5S318.1,37.2,247.4,23.6c-45.5-8.7-97.5-10-134.1,14.4C78,61.5,66.6,102,60.5,139.5c-4.6,28.3-7.3,58,5.3,84.5,8.8,18.4,24.3,33.8,35.1,51.4,37.4,61.3,11,136.8-29.6,196.6-19,28.1-41.1,54.8-55.8,84.7S-6,620.8,6.9,651.2C19.7,681.4,50,704,82.9,720c66.8,32.4,145.5,41.7,222.3,46.9,169.9,11.6,340.8,6.6,511.2,1.5,63.1-1.9,126.4-3.8,188.4-13.5,34.4-5.4,70-14,95-34.8,31.8-26.3,39.6-70.9,18.3-104-35.7-55.4-134.3-69.2-159.3-128.6-13.7-32.7.4-69.2,20.3-99.5,42.8-65.1,114.5-122.2,118.3-196.6,2.6-51.1-31.9-102.3-85.2-126.5C956.3,39.8,878.8,43,837.6,85,795.1,128.2,720.5,144.8,656.5,142.6Z" transform="translate(-0.07 -17.88)" style="fill:#5a576e"/><path d="M417.9,78.8c145.8,54.7,284.4,61.9,414.4,11.3L821,158.7,461.3,145.4Z" transform="translate(-0.07 -17.88)" style="fill:#5a576e"/><path d="M785,105.8c30-11.1,52.4-22.2,67.5-33.3L860,91.6l-27.7,21.9Z" transform="translate(-0.07 -17.88)" style="fill:#5a576e"/><path d="M352.2,134.1H826.6a19.85,19.85,0,0,1,19.8,19.8V733.3a19.85,19.85,0,0,1-19.8,19.8H352.2a19.85,19.85,0,0,1-19.8-19.8V153.9A19.78,19.78,0,0,1,352.2,134.1Z" transform="translate(-0.07 -17.88)" style="fill:#2f2c40"/><rect x="376.63" y="174.82" width="425.3" height="494.1" style="fill:#fff;stroke:#fff;stroke-miterlimit:10;opacity:0.10000000149011612;isolation:isolate"/><circle cx="589.33" cy="705.32" r="18.1" style="fill:#fff"/><path d="M589.4,178.8a8.55,8.55,0,1,1,8.6-8.5,8.58,8.58,0,0,1-8.6,8.5Z" transform="translate(-0.07 -17.88)" style="fill:#fff"/><path d="M589.4,162.2a8.05,8.05,0,1,1-8,8.1v-.1a8,8,0,0,1,8-8m0-1a9.05,9.05,0,1,0,9.1,9h0A9.11,9.11,0,0,0,589.4,161.2Z" transform="translate(-0.07 -17.88)" style="fill:#fff"/><path d="M582.8,287.5V269.9H596v17.6h13.4V261.1H618l-28.6-26.4-28.6,26.4h8.6v26.4Z" transform="translate(-0.07 -17.88)" style="fill:#ffd500"/><path d="M441.4,369.3v-19a4,4,0,0,0-8,0v19a8.24,8.24,0,1,0,8,0Zm-5.4-19a1.43,1.43,0,0,1,1.5-1.3,1.49,1.49,0,0,1,1.3,1.3v4.3H436Z" transform="translate(-0.07 -17.88)" style="fill:#fff;stroke:#fff;stroke-miterlimit:10"/><rect x="493.23" y="346.22" width="240" height="2.7" style="fill:#ffd500;opacity:0.30000001192092896;isolation:isolate"/><circle cx="567.33" cy="347.52" r="6.3" style="fill:#ffd500"/><rect x="493.23" y="346.22" width="74.1" height="2.7" style="fill:#ffd500"/><path d="M438.8,462.1a1.54,1.54,0,0,0-3-.2l-1.5,7.9c0,.2-.1.4-.1.6a3,3,0,0,0,6,0,1.7,1.7,0,0,0-.1-.7Zm11.3,3.4c-.2-.1-.3-.2-.5-.3l-5.9-4.1a1.2,1.2,0,0,0-1.5.1,1.06,1.06,0,0,0-.2,1.3l4.6,5.6c.1.1.2.3.3.4a2.43,2.43,0,0,0,3.2,0,2,2,0,0,0,.2-2.8c0-.1-.1-.1-.2-.2Zm4-5.8-5.5-.2a.59.59,0,0,0-.7.5.91.91,0,0,0,.4.8h0l5.4,1.5c.8.2,1.6-.2,1.6-1,0-1-.3-1.5-1.2-1.6Zm-27.5,1.1a.63.63,0,0,0,.4-.8.69.69,0,0,0-.8-.5l-5.5.2c-.9.1-1.1.6-1.1,1.6a1.2,1.2,0,0,0,1.6,1l5.4-1.5Zm4.5.3-5.9,4.1c-.2.1-.3.2-.5.3a2,2,0,0,0-.2,2.8l.2.2a2.43,2.43,0,0,0,3.2,0,1.38,1.38,0,0,0,.3-.4l4.6-5.6a1,1,0,0,0-.2-1.3,1.09,1.09,0,0,0-1.5-.1Zm6.3-26.4s2.6,3,2.6,5.5a4,4,0,0,1-3.7,4.3H436a4.23,4.23,0,0,1-4.2-4.2v-.7a16.6,16.6,0,0,0-3.7,10.5,9.25,9.25,0,0,0,18.5.1h0c.1-6.3-3-13.6-9.2-15.5Zm-.3,21.2a3.67,3.67,0,0,1-3.7-3.6,3.6,3.6,0,0,1,3.3-3.6,8.89,8.89,0,0,0,5.4-3,14.87,14.87,0,0,1,.7,4.7,5.73,5.73,0,0,1-5.7,5.5Z" transform="translate(-0.07 -17.88)" style="fill:#fff;stroke:#fff;stroke-miterlimit:10"/><rect x="493.23" y="434.72" width="240" height="2.7" style="fill:#ffd500;opacity:0.30000001192092896;isolation:isolate"/><circle cx="623.33" cy="436.12" r="6.3" style="fill:#ffd500"/><rect x="493.23" y="434.72" width="130.7" height="2.7" style="fill:#ffd500"/><path d="M431.9,556.7a1.75,1.75,0,0,0,1.7,1.7h7.6a1.75,1.75,0,0,0,1.7-1.7v-1.5h-11v1.5Zm5.5-31.3c-6.9,0-12.4,5.2-12.4,11.5a11.2,11.2,0,0,0,5.3,9.5v3.7a1.77,1.77,0,0,0,1.8,1.7h10.6a1.83,1.83,0,0,0,1.8-1.6h0v-3.7a11.2,11.2,0,0,0,5.3-9.5c0-6.4-5.6-11.6-12.4-11.6Z" transform="translate(-0.07 -17.88)" style="fill:#fff;stroke:#fff;stroke-miterlimit:10"/><rect x="493.23" y="522.72" width="240" height="2.7" style="fill:#ffd500;opacity:0.30000001192092896;isolation:isolate"/><circle cx="685.33" cy="524.02" r="6.3" style="fill:#ffd500"/><rect x="493.23" y="522.72" width="192.7" height="2.7" style="fill:#ffd500"/><path d="M429.1,609.1v19.2h5.5v16.5l11-22h-5.5l5.5-13.7Z" transform="translate(-0.07 -17.88)" style="fill:#fff;stroke:#fff;stroke-miterlimit:10"/><rect x="493.23" y="607.82" width="240" height="2.7" style="fill:#ffd500;opacity:0.30000001192092896;isolation:isolate"/><circle cx="567.33" cy="609.12" r="6.3" style="fill:#ffd500"/><rect x="493.23" y="607.82" width="74.1" height="2.7" style="fill:#ffd500"/><ellipse cx="344.03" cy="762.62" rx="59.5" ry="11.4" style="fill:#ffd500"/><ellipse cx="343.03" cy="757.82" rx="6.9" ry="9.1" style="fill:#3f3d56"/><ellipse cx="343.03" cy="746.72" rx="6.9" ry="9.1" style="fill:#3f3d56"/><ellipse cx="343.03" cy="735.62" rx="6.9" ry="9.1" style="fill:#3f3d56"/><ellipse cx="343.03" cy="724.62" rx="6.9" ry="9.1" style="fill:#3f3d56"/><ellipse cx="343.03" cy="713.52" rx="6.9" ry="9.1" style="fill:#3f3d56"/><ellipse cx="343.03" cy="702.42" rx="6.9" ry="9.1" style="fill:#3f3d56"/><ellipse cx="343.03" cy="691.32" rx="6.9" ry="9.1" style="fill:#3f3d56"/><path d="M369,633.4c.9-1.2,1.8-2.5,2.6-3.8l-18.2-3,19.7.2a33.38,33.38,0,0,0,.6-26.3l-26.4,13.7,24.3-17.9a33.15,33.15,0,1,0-57.4,33.2,37.75,37.75,0,0,0,2.6,3.9,37.87,37.87,0,0,0-3.8,6l23.6,12.3-25.2-8.4a33.14,33.14,0,0,0,5.3,31.1,33.19,33.19,0,1,0,52.2,0,32.92,32.92,0,0,0,.1-41Z" transform="translate(-0.07 -17.88)" style="fill:#ffd500"/><path d="M309.8,653.9a33.13,33.13,0,0,0,7.1,20.5,33.19,33.19,0,1,0,52.2,0C373.4,668.8,309.8,650.2,309.8,653.9Z" transform="translate(-0.07 -17.88)" style="opacity:0.10000000149011612;isolation:isolate"/><ellipse cx="213.83" cy="663.42" rx="91.9" ry="17.7" style="fill:#ffd500"/><ellipse cx="215.33" cy="655.82" rx="10.7" ry="14" style="fill:#3f3d56"/><ellipse cx="215.33" cy="638.72" rx="10.7" ry="14" style="fill:#3f3d56"/><ellipse cx="215.33" cy="621.62" rx="10.7" ry="14" style="fill:#3f3d56"/><ellipse cx="215.33" cy="604.42" rx="10.7" ry="14" style="fill:#3f3d56"/><ellipse cx="215.33" cy="587.32" rx="10.7" ry="14" style="fill:#3f3d56"/><ellipse cx="215.33" cy="570.22" rx="10.7" ry="14" style="fill:#3f3d56"/><ellipse cx="215.33" cy="553.12" rx="10.7" ry="14" style="fill:#3f3d56"/><path d="M175.4,453.8a47,47,0,0,1-4-5.9l28.1-4.6-30.4.2a51.17,51.17,0,0,1-1-40.6l40.8,21.2-37.6-27.7A51.28,51.28,0,0,1,260,447.9a47,47,0,0,1-4,5.9,47.54,47.54,0,0,1,5.8,9.4l-36.5,19,38.9-13.1a51.39,51.39,0,0,1-8.3,48.1,51.27,51.27,0,1,1-80.6,0,51.5,51.5,0,0,1,.1-63.4Z" transform="translate(-0.07 -17.88)" style="fill:#ffd500"/><path d="M267,485.5a51.27,51.27,0,0,1-11,31.7,51.27,51.27,0,1,1-80.6,0C168.5,508.4,267,479.7,267,485.5Z" transform="translate(-0.07 -17.88)" style="opacity:0.10000000149011612;isolation:isolate"/><ellipse cx="881.93" cy="775.72" rx="99" ry="21" style="fill:#5a576e"/><path d="M845.2,796a8.33,8.33,0,0,0,.4,1.5,8.82,8.82,0,0,0,3.3,4.6,8.25,8.25,0,0,0,2.6,1c6.1,1.5,12.5,1,18.8,1.6s12.9,2.3,19.1.5a5,5,0,0,0,3.6-2.7c0-.1.1-.2.1-.3,4.5.6,9,1,13.3-.2a5,5,0,0,0,3.6-2.7,6.52,6.52,0,0,0,.2-2.4c-.2-4.2-.4-8.5-1.7-12.5a36.94,36.94,0,0,0-1.7-4.2c-1-2.1-2-4.2-3.2-6.2l-.3-.7c.8.4,1.7.8,2.5,1.2a213.66,213.66,0,0,0,8.1-35.4,126.12,126.12,0,0,0-1.2-42.9,62.23,62.23,0,0,1-1-14.3c.4-9.5,2.6-18.8,4.8-28.1l3.3-14.1,4.8-20.1c1.1-4.4,2.1-9,1.8-13.6a31.37,31.37,0,0,0-1.5-7.4,72.76,72.76,0,0,0-4.2-11.3,1.74,1.74,0,0,0,1.4-.3,2.62,2.62,0,0,0,.6-1.3l2.5-9.1c1.8-6.4,3.5-12.8,4-19.4.5-7.5-.6-15-.8-22.4-.3-9.7.9-19.5.2-29.2-.1-2.1-.4-4.2-.6-6.3.1-1.1.1-2.2.2-3.3.2-5.4.1-10.8-1.9-15.8a21.44,21.44,0,0,0-6.6-9.1c.1-.5.2-.9.3-1.3l2.1-10c2.3-11.1,4.7-22.5,3.3-33.7-1.2-10-5.9-20.2-13.8-25.5h-.1l-.8-.5-.2-.1c-.3-.2-.5-.3-.8-.5l-.2-.1a4.67,4.67,0,0,0-1-.5,30.87,30.87,0,0,0-8-2.4l-1.1-.2a18.41,18.41,0,0,0-3.3-.3H895c-1.1,0-2.2.1-3.3.2a5,5,0,0,0-1.2.2l-1.2.3a46.11,46.11,0,0,1-7.2,1.5c-.5,0-.9.1-1.4.1-1.4,0-2.8-.1-4.2-.2-.7,0-1.4-.1-2.1-.1a18.7,18.7,0,0,0-3.4.3,13.37,13.37,0,0,0-5.4,2.5,22.85,22.85,0,0,0-3.3,2.9c-.8.9-1.6,1.8-2.3,2.7a17,17,0,0,0-1,1.4l-.5.7a10.93,10.93,0,0,0-.8,1.5,22.88,22.88,0,0,0-1,2.3,11.11,11.11,0,0,0-.5,6.5c.1.5.3.9.4,1.4a26.09,26.09,0,0,0-2.8,11.6c0,11,6.9,20.3,16.3,23.3,1.2,2.1,2.5,4.8,3.7,7.4a28.2,28.2,0,0,0-6.4,6.5c-5.9-.3-11.6,4.3-13.5,10.2a18.39,18.39,0,0,0-.7,7c-1.2,4.9-1.3,10.2-1.4,15.4-.2,8.1-.6,16.2-1,24.3s-.8,16.1-1.3,24.2c-.1,2.3-.2,4.6-.5,6.9-1.5.4-1.5,2.4-1.4,4,.5,4.3,1.2,8.6,1.7,12.9a20.07,20.07,0,0,0-.4,8.1l.8.4a32.51,32.51,0,0,1-1.2,8.2.77.77,0,1,0,.7,1c-1.3,4.2-2.3,8.5-3.8,12.6-.8,2.1-1.7,4.2-2.3,6.4a64,64,0,0,0-1.4,6.3,22,22,0,0,0-.5,3.7,15.46,15.46,0,0,0,5.3,12.7c0,.8-.1,1.6-.1,2.5,0,5.8.9,11.7.7,17.5-.3,7.9-1.7,15.3-1.7,23.2-.1,21.8,5.8,43.1,12.9,63.6,2.8,8.1,5.7,16.2,8.8,24.1,1.8,4.7,3.9,10,1.9,14.6.7-.3,1.3-.5,2-.8a20.29,20.29,0,0,1-4.6,7,18.52,18.52,0,0,1-11.5,5.4c-2.1.2-4.2.1-6.2.8C846.9,791.9,845,793.8,845.2,796Zm25.6-113.1A96.14,96.14,0,0,1,883.1,651l.1.7c.3,3.2.9,6.4,1.5,9.7,1.3,6.8,2.9,13.5,2.7,20.3a110.45,110.45,0,0,0,1.3,21.5,32,32,0,0,0,2,8.1,45.75,45.75,0,0,1,2,4.6,22.55,22.55,0,0,1,.8,5.8,207.86,207.86,0,0,1-2.9,47.9c-.7,0-1.1.1-1.1.2a21.47,21.47,0,0,1-2.7,7.7l-.1-.2c-.2-.4-.5-.9-.8-1.4l.8.1c-2.3-4.9-2.1-10.7-2.2-16.2a151.89,151.89,0,0,0-2.3-22.3A131.19,131.19,0,0,0,872,705.3a23.14,23.14,0,0,1-2-6.8A45.45,45.45,0,0,1,870.8,682.9Zm41.3-119-1.2-1.5c-1-1.1-2.2-2.3-1.9-3.8a3.61,3.61,0,0,1,.8-1.5,23.67,23.67,0,0,1,2.7-2.8l.3-.3c-.3,3.3-.5,6.6-.7,9.9Z" transform="translate(-0.07 -17.88)" style="fill:url(#a)"/><path d="M926.6,491.3l1.1,8.5c.4,2.9.7,5.8.9,8.6.7,9.6-.6,19.3-.3,28.9.3,7.4,1.4,14.8.9,22.2-.5,6.5-2.4,12.9-4.2,19.2l-2.6,9a1.85,1.85,0,0,1-.7,1.2,2.49,2.49,0,0,1-1.7.3l-11.7-1a92.59,92.59,0,0,0,2-10.5c.3-2.8.5-5.5.7-8.3.6-8.7,1.3-17.3,2-26l1.3-15.2a117,117,0,0,1,2.7-19.6A39.46,39.46,0,0,1,926.6,491.3Z" transform="translate(-0.07 -17.88)" style="fill:#ffd500"/><path d="M926.6,491.3l1.1,8.5c.4,2.9.7,5.8.9,8.6.7,9.6-.6,19.3-.3,28.9.3,7.4,1.4,14.8.9,22.2-.5,6.5-2.4,12.9-4.2,19.2l-2.6,9a1.85,1.85,0,0,1-.7,1.2,2.49,2.49,0,0,1-1.7.3l-11.7-1a92.59,92.59,0,0,0,2-10.5c.3-2.8.5-5.5.7-8.3.6-8.7,1.3-17.3,2-26l1.3-15.2a117,117,0,0,1,2.7-19.6A39.46,39.46,0,0,1,926.6,491.3Z" transform="translate(-0.07 -17.88)" style="opacity:0.10000000149011612;isolation:isolate"/><path d="M905.8,780.3a31.22,31.22,0,0,1,1.8,4.2c1.3,3.9,1.5,8.2,1.7,12.4a6.52,6.52,0,0,1-.2,2.4c-.6,1.5-2.2,2.3-3.8,2.7-6.5,1.8-13.3.1-20-.5s-13.3-.2-19.7-1.6a10.71,10.71,0,0,1-2.7-.9,9.24,9.24,0,0,1-3.5-4.5,8.33,8.33,0,0,1-.4-1.5c-.2-2.2,1.7-4.1,3.8-4.8s4.3-.6,6.5-.8a20.39,20.39,0,0,0,18.2-17.2c.1-.5,10.8-.2,12,.4s2.1,2.5,2.9,3.8C903.6,776.2,904.7,778.3,905.8,780.3Z" transform="translate(-0.07 -17.88)" style="fill:#a26565"/><path d="M905.8,780.3a31.22,31.22,0,0,1,1.8,4.2c1.3,3.9,1.5,8.2,1.7,12.4a6.52,6.52,0,0,1-.2,2.4c-.6,1.5-2.2,2.3-3.8,2.7-6.5,1.8-13.3.1-20-.5s-13.3-.2-19.7-1.6a10.71,10.71,0,0,1-2.7-.9,9.24,9.24,0,0,1-3.5-4.5,8.33,8.33,0,0,1-.4-1.5c-.2-2.2,1.7-4.1,3.8-4.8s4.3-.6,6.5-.8a20.39,20.39,0,0,0,18.2-17.2c.1-.5,10.8-.2,12,.4s2.1,2.5,2.9,3.8C903.6,776.2,904.7,778.3,905.8,780.3Z" transform="translate(-0.07 -17.88)" style="opacity:0.10000000149011612;isolation:isolate"/><path d="M887.9,783.5a26.54,26.54,0,0,1,1.8,4.2c1.3,4,1.5,8.2,1.7,12.4a6.52,6.52,0,0,1-.2,2.4c-.6,1.5-2.2,2.3-3.8,2.7-6.5,1.7-13.3.1-20-.5s-13.3-.2-19.7-1.6a7.94,7.94,0,0,1-2.7-1,8.7,8.7,0,0,1-3.5-4.5,8.33,8.33,0,0,1-.4-1.5c-.2-2.2,1.7-4.1,3.8-4.8s4.3-.6,6.5-.8a20.59,20.59,0,0,0,18.2-17.2c.1-.5,10.8-.2,12,.4s2.1,2.5,2.9,3.8A44.15,44.15,0,0,1,887.9,783.5Z" transform="translate(-0.07 -17.88)" style="fill:#a26565"/><path d="M841.4,677.3c-.1,21.6,6.1,42.7,13.5,63,2.9,8,6,16,9.3,23.9,1.9,4.7,4.1,9.9,2,14.5,6-2.3,12.1-3.6,18.4-2.6-2.4-4.9-2.2-10.6-2.3-16a137.06,137.06,0,0,0-2.4-22.1,120.15,120.15,0,0,0-10.8-31.9,26.11,26.11,0,0,1-2.1-6.7,42.72,42.72,0,0,1,.9-15.5,92.91,92.91,0,0,1,12.9-31.6l.1.6c.4,3.2.9,6.4,1.6,9.6,1.4,6.7,3.1,13.4,2.8,20.1a108.42,108.42,0,0,0,1.3,21.3,32.4,32.4,0,0,0,2.2,8.1,38.18,38.18,0,0,1,2.1,4.6,22.39,22.39,0,0,1,.8,5.7,193.65,193.65,0,0,1-3.3,48.7,31.28,31.28,0,0,1,16.1,3.7,201.8,201.8,0,0,0,8.5-35.1,116.85,116.85,0,0,0-1.3-42.5,56.32,56.32,0,0,1-1-14.2c.4-9.4,2.8-18.7,5.1-27.9l3.5-14c1.7-6.7,3.3-13.3,5-19.9,1.1-4.4,2.2-8.9,1.9-13.5a30.76,30.76,0,0,0-1.6-7.3,79.26,79.26,0,0,0-11.1-22.6c-19.3,1.1-38.8-.7-58-2.2a3.69,3.69,0,0,0-2.7.5,3.84,3.84,0,0,0-1.1,2.5l-7.2,41a100.8,100.8,0,0,0-2,17.3c0,5.8.9,11.6.7,17.4C842.9,662.1,841.4,669.5,841.4,677.3Z" transform="translate(-0.07 -17.88)" style="fill:#454b69"/><path d="M881,653c.4,3.2.9,6.4,1.6,9.6,4.2-7.3,8.7-14.3,12.6-21.8,1-1.9,1.9-3.8,2.9-5.8l2.8-5.8c.5-1.1,1.1-2.2,1.5-3.3a23,23,0,0,0,1.8-5c-1.4-.3-4.9,3.5-5.9,4.5q-3.15,3.15-6,6.6a85.73,85.73,0,0,0-6.4,8.2A42.41,42.41,0,0,0,881,653Z" transform="translate(-0.07 -17.88)" style="opacity:0.10000000149011612;isolation:isolate"/><path d="M864.9,454.1s10.7,17,8.7,20.6,33.7-3.2,33.7-3.2-19.4-17-17.4-24.2S864.9,454.1,864.9,454.1Z" transform="translate(-0.07 -17.88)" style="fill:#ee8e9e"/><circle cx="874.33" cy="417.12" r="24.2" style="fill:#ee8e9e"/><path d="M864.5,472a24.81,24.81,0,0,1,10.2-8.2,44.61,44.61,0,0,1,7.2-1.8l9.7-1.7c2.4-.4,4.9-.8,7.1.2a12.88,12.88,0,0,1,3,2.2c3.3,3.1,6.6,6.5,10.8,8.3,1.2.5,2.3.8,3.5,1.3,4.7,2,8.2,6.3,10.2,11,2.1,4.9,2.2,10.3,2,15.7a33.08,33.08,0,0,1-.5,5.5,51.73,51.73,0,0,1-1.8,5.1,101.59,101.59,0,0,0-3.3,10.7c-2.5,9.6-4.6,19.2-6.2,29a10.94,10.94,0,0,1-1.2,4,16.68,16.68,0,0,1-3.3,3.2,24.67,24.67,0,0,0-2.8,2.8,3.77,3.77,0,0,0-.9,1.5c-.3,1.4,1,2.7,2,3.7a17.39,17.39,0,0,1,4.5,7.9,2.93,2.93,0,0,1,.7,2.2,3.21,3.21,0,0,0-.2,1.7,4.19,4.19,0,0,0,.9,1.4,5.48,5.48,0,0,1,1,4.3,66.7,66.7,0,0,1-23.7,5.5c-2,.1-4,.1-6,.3-1.4.2-2.8.5-4.2.6-2.1.2-4.1.2-6.2.2-10.8-.2-21.8-.5-31.7-4.8-.9-5.1,1.1-10.2,2.3-15.2,2-8,2.5-16.2,4-24.3,1-5.5,2.5-10.9,3.3-16.5s1-11.3-.5-16.7c-1.3-4.8-1.8-9.7-3.2-14.4s-2.4-9.9-.8-14.7C852.3,476.3,858.4,471.6,864.5,472Z" transform="translate(-0.07 -17.88)" style="fill:#ffd500"/><path d="M852.7,422.2c-1.2-4.3,1.1-8.8,3.9-12.3,3-3.8,6.8-7.1,11.5-8.1,3.8-.8,7.8.2,11.6-.1,3.4-.3,6.7-1.5,10.1-2a32.29,32.29,0,0,1,9.3.4,32.77,32.77,0,0,1,8.5,2.4c10.3,4.6,16.3,15.8,17.7,27s-1,22.4-3.5,33.4l-2.2,9.9c-2.3,10.3-4.6,20.7-5.2,31.3s.5,21.4,4.9,31.1a66.59,66.59,0,0,1-30.7-34.8c-1.6-4.1-2.7-8.3-4.5-12.4-1.5-3.5-3.4-6.7-4.7-10.3a33.21,33.21,0,0,1-2.1-12.5c.1-3.2.6-6.4.5-9.6s-.9-6.5-3.1-8.9c-2-2-4.8-3-7.3-4.3a28.89,28.89,0,0,1-10.2-8.5c-1.6-2.1-1.7-3-2.1-5.4S853.3,424.5,852.7,422.2Z" transform="translate(-0.07 -17.88)" style="fill:#454b69"/><path d="M852.6,603.9c-.3,2.5.2,5-.3,7.5-.4,1.8-1.4,3.5-1.9,5.3a22.93,22.93,0,0,0-.8,6.4c-.1,1.8.1,4,1.7,4.8a15.46,15.46,0,0,0,2.3.7c.7.3,1.3,1.2.9,1.9s-1.1.6-1.8.7-1.4.8-1,1.4a2.09,2.09,0,0,0,.6.4,6.63,6.63,0,0,1,1.9.9,1.84,1.84,0,0,1,.8,1.8,1.1,1.1,0,0,1-1.4.8.35.35,0,0,1-.2-.1,4.55,4.55,0,0,1,.5,2c-2.6,1.1-5.4-.3-7.8-1.7-1-.6-2-1.2-3-1.9a15,15,0,0,1-5.8-12.8,25.83,25.83,0,0,1,.6-3.7,62.28,62.28,0,0,1,1.5-6.2c.7-2.2,1.6-4.2,2.4-6.3,1.7-4.5,2.8-9.2,4.4-13.7a1.64,1.64,0,0,1,1.9-1.4,18,18,0,0,1,5.2.5c1,.3,2.7,1,3.2,2s-.3,1.8-.7,2.7A16.34,16.34,0,0,0,852.6,603.9Z" transform="translate(-0.07 -17.88)" style="fill:#ee8e9e"/><path d="M854.3,482.4a8.32,8.32,0,0,0-1.3,1.8c-3.4,6.3-3.5,13.7-3.6,20.8-.2,8-.6,16-1.1,24L847,553c-.1,2.3-.3,4.6-.6,6.8-1.5.4-1.6,2.4-1.4,4,1.1,9.8,3.9,19.8,1,29.3a2.39,2.39,0,0,1-.7,1.3,7.67,7.67,0,0,1,4.5-.1c1.4.3,2.8.8,4.3,1.2,1.8.4,3.9.6,5.1,2a93.8,93.8,0,0,0,3.3-12.9c.7-4,.9-8.1,2.5-11.8.7-1.5,1.5-2.9,2.3-4.3,4.2-7.5,6.3-15.9,8.3-24.3a35.13,35.13,0,0,0,.6-12.1,34.3,34.3,0,0,1-.5-5.6,36.82,36.82,0,0,1,.8-5.8,38.62,38.62,0,0,0-1.2-16.9c-1.5-5.1-2.8-10.5-6-14.7S859.6,482.5,854.3,482.4Z" transform="translate(-0.07 -17.88)" style="opacity:0.10000000149011612;isolation:isolate"/><path d="M853.1,481.6a8.32,8.32,0,0,0-1.3,1.8c-3.4,6.2-3.5,13.7-3.6,20.8-.2,8-.6,16-1.1,24l-1.3,24c-.1,2.3-.3,4.6-.6,6.8-1.5.4-1.6,2.4-1.4,4,1.1,9.8,3.8,19.8,1,29.3a2.39,2.39,0,0,1-.7,1.3,7.67,7.67,0,0,1,4.5-.1c1.4.3,2.8.8,4.3,1.2,1.8.4,3.9.6,5.1,2a93.8,93.8,0,0,0,3.3-12.9c.7-4,.9-8.1,2.5-11.8.7-1.5,1.5-2.9,2.3-4.3,4.2-7.5,6.3-15.9,8.3-24.3a35.13,35.13,0,0,0,.6-12.1,24.39,24.39,0,0,1,.3-11.4,38.62,38.62,0,0,0-1.2-16.9c-1.5-5.1-2.8-10.5-6-14.7S858.4,481.7,853.1,481.6Z" transform="translate(-0.07 -17.88)" style="fill:#ffd500"/><g style="opacity:0.10000000149011612"><path d="M856.6,410c3-3.8,6.8-7.1,11.5-8.1,3.8-.8,7.8.2,11.6-.1,3.4-.3,6.7-1.5,10.1-2a32.29,32.29,0,0,1,9.3.4,32.77,32.77,0,0,1,8.5,2.4,21.75,21.75,0,0,1,4.2,2.4,37.66,37.66,0,0,0-7.5-2,32.29,32.29,0,0,0-9.3-.4c-3.4.4-6.7,1.7-10.2,1.9-3.9.3-7.8-.6-11.6.1-4.7.9-8.5,4.3-11.5,8.1-2.8,3.5-5.1,8-3.9,12.3.6,2.3,2.1,4.2,2.5,6.6s.5,3.3,2.1,5.4a29.42,29.42,0,0,0,7.3,6.8c-.8-.4-1.6-.7-2.3-1.1a28.89,28.89,0,0,1-10.2-8.5c-1.6-2.1-1.7-3-2.1-5.4s-1.8-4.3-2.5-6.6C851.5,417.9,853.8,413.5,856.6,410Z" transform="translate(-0.07 -17.88)"/><path d="M874.7,447c-.4-.4-.9-.8-1.3-1.2,2.3,1.1,4.7,2.1,6.5,4,2.2,2.3,3,5.6,3.1,8.9s-.5,6.4-.5,9.6a33.21,33.21,0,0,0,2.1,12.5c1.3,3.5,3.2,6.8,4.7,10.3,1.7,4,2.9,8.3,4.5,12.3A66.9,66.9,0,0,0,919.2,535c.1.1.1.3.2.4a66.59,66.59,0,0,1-30.7-34.8c-1.6-4.1-2.7-8.3-4.5-12.4-1.5-3.5-3.4-6.7-4.7-10.3a33.21,33.21,0,0,1-2.1-12.5c.1-3.2.6-6.4.5-9.6A13.24,13.24,0,0,0,874.7,447Z" transform="translate(-0.07 -17.88)"/></g><path d="M132.1,121.8h63.7a9.07,9.07,0,0,1,9.1,9.1v39.7a9.07,9.07,0,0,1-9.1,9.1H132.1a9.07,9.07,0,0,1-9.1-9.1V130.9A9.13,9.13,0,0,1,132.1,121.8Z" transform="translate(-0.07 -17.88)" style="fill:#ffd500;opacity:0.5;isolation:isolate"/><path d="M214.1,223.8h63.7a9.07,9.07,0,0,1,9.1,9.1v39.7a9.07,9.07,0,0,1-9.1,9.1H214.1a9.07,9.07,0,0,1-9.1-9.1V232.9A9.13,9.13,0,0,1,214.1,223.8Z" transform="translate(-0.07 -17.88)" style="fill:#ffd500;opacity:0.5;isolation:isolate"/><path d="M896.1,131.8h63.7a9.15,9.15,0,0,1,9.2,9.1v39.7a9.09,9.09,0,0,1-9.2,9.1H896.1a9.15,9.15,0,0,1-9.2-9.1V140.9A9.29,9.29,0,0,1,896.1,131.8Z" transform="translate(-0.07 -17.88)" style="fill:#ffd500;opacity:0.5;isolation:isolate"/></svg>