<?xml version="1.0" encoding="utf-8"?>
<!-- Generator: Adobe Illustrator 24.0.1, SVG Export Plug-In . SVG Version: 6.00 Build 0)  -->
<svg version="1.1" xmlns="http://www.w3.org/2000/svg" xmlns:xlink="http://www.w3.org/1999/xlink" x="0px" y="0px"
	 viewBox="0 0 1130 814.6" style="enable-background:new 0 0 1130 814.6;" xml:space="preserve">
<style type="text/css">
	.st0{display:none;}
	.st1{display:inline;fill:#2D2843;}
	.st2{fill:#5A576E;enable-background:new    ;}
	.st3{fill:#5A576E;}
	.st4{fill:#2F2C40;}
	.st5{opacity:0.1;fill:#FFFFFF;stroke:#FFFFFF;stroke-miterlimit:10;enable-background:new    ;}
	.st6{fill:#FFFFFF;}
	.st7{fill:#FFD500;}
	.st8{fill:#FFFFFF;stroke:#FFFFFF;stroke-miterlimit:10;}
	.st9{opacity:0.3;fill:#FFD500;enable-background:new    ;}
	.st10{fill:#3F3D56;}
	.st11{opacity:0.1;enable-background:new    ;}
	.st12{fill:url(#SVGID_1_);}
	.st13{fill:#A26565;}
	.st14{fill:#454B69;}
	.st15{fill:#EE8E9E;}
	.st16{opacity:0.1;}
	.st17{opacity:0.5;fill:#FFD500;enable-background:new    ;}
</style>
<g id="Camada_2" class="st0">
	<rect x="0" class="st1" width="1130" height="814.6"/>
</g>
<g id="fe68a858-d407-4692-b55a-9dffb576a509">
	<title>smart home</title>
	<path class="st2" d="M656.5,142.6c-72.4-2.5-141.4-25.9-207.3-51.5S318.1,37.2,247.4,23.6c-45.5-8.7-97.5-10-134.1,14.4
		c-35.3,23.5-46.7,64-52.8,101.5c-4.6,28.3-7.3,58,5.3,84.5c8.8,18.4,24.3,33.8,35.1,51.4c37.4,61.3,11,136.8-29.6,196.6
		c-19,28.1-41.1,54.8-55.8,84.7s-21.5,64.1-8.6,94.5c12.8,30.2,43.1,52.8,76,68.8c66.8,32.4,145.5,41.7,222.3,46.9
		c169.9,11.6,340.8,6.6,511.2,1.5c63.1-1.9,126.4-3.8,188.4-13.5c34.4-5.4,70-14,95-34.8c31.8-26.3,39.6-70.9,18.3-104
		c-35.7-55.4-134.3-69.2-159.3-128.6c-13.7-32.7,0.4-69.2,20.3-99.5c42.8-65.1,114.5-122.2,118.3-196.6
		c2.6-51.1-31.9-102.3-85.2-126.5C956.3,39.8,878.8,43,837.6,85C795.1,128.2,720.5,144.8,656.5,142.6z"/>
	<path class="st3" d="M417.9,78.8c145.8,54.7,284.4,61.9,414.4,11.3L821,158.7l-359.7-13.3L417.9,78.8z"/>
	<path class="st3" d="M785,105.8c30-11.1,52.4-22.2,67.5-33.3l7.5,19.1l-27.7,21.9L785,105.8z"/>
	<path class="st4" d="M352.2,134.1h474.4c10.9,0,19.8,8.9,19.8,19.8v579.4c0,10.9-8.9,19.8-19.8,19.8H352.2
		c-10.9,0-19.8-8.9-19.8-19.8V153.9C332.4,142.9,341.3,134.1,352.2,134.1z"/>
	<rect x="376.7" y="192.7" class="st5" width="425.3" height="494.1"/>
	<circle class="st6" cx="589.4" cy="723.2" r="18.1"/>
	<path class="st6" d="M589.4,178.8c-4.7,0-8.5-3.9-8.5-8.6c0-4.7,3.9-8.5,8.6-8.5c4.7,0,8.5,3.9,8.5,8.6
		C598,175,594.1,178.8,589.4,178.8C589.4,178.8,589.4,178.8,589.4,178.8z"/>
	<path class="st6" d="M589.4,162.2c4.4,0,8.1,3.6,8.1,8s-3.6,8.1-8,8.1c-4.4,0-8.1-3.6-8.1-8c0,0,0-0.1,0-0.1
		C581.4,165.8,585,162.2,589.4,162.2 M589.4,161.2c-5,0-9,4.1-9,9.1c0,5,4.1,9,9.1,9c5,0,9-4.1,9-9.1c0,0,0,0,0,0
		C598.4,165.2,594.4,161.2,589.4,161.2z"/>
	<path class="st7" d="M582.8,287.5v-17.6H596v17.6h13.4v-26.4h8.6l-28.6-26.4l-28.6,26.4h8.6v26.4H582.8z"/>
	<path class="st8" d="M441.4,369.3v-19c0-2.2-1.8-4-4-4s-4,1.8-4,4v19c-4,2.2-5.4,7.3-3.2,11.2c2.2,4,7.3,5.4,11.2,3.2
		c4-2.2,5.4-7.3,3.2-11.2C443.8,371.1,442.7,370,441.4,369.3z M436,350.3c0.1-0.8,0.7-1.3,1.5-1.3c0.7,0.1,1.2,0.6,1.3,1.3v4.3H436
		V350.3z"/>
	<rect x="493.3" y="364.1" class="st9" width="240" height="2.7"/>
	<circle class="st7" cx="567.4" cy="365.4" r="6.3"/>
	<rect x="493.3" y="364.1" class="st7" width="74.1" height="2.7"/>
	<path class="st8" d="M438.8,462.1c-0.1-0.7-0.7-1.3-1.5-1.3c-0.7,0-1.3,0.4-1.5,1.1l-1.5,7.9c0,0.2-0.1,0.4-0.1,0.6
		c0,1.7,1.3,3,3,3s3-1.3,3-3c0-0.2,0-0.5-0.1-0.7L438.8,462.1z M450.1,465.5c-0.2-0.1-0.3-0.2-0.5-0.3l-5.9-4.1
		c-0.5-0.3-1.1-0.3-1.5,0.1c-0.4,0.3-0.4,0.9-0.2,1.3l4.6,5.6c0.1,0.1,0.2,0.3,0.3,0.4c0.9,0.8,2.3,0.8,3.2,0c0.8-0.7,0.9-2,0.2-2.8
		C450.3,465.6,450.2,465.6,450.1,465.5L450.1,465.5z M454.1,459.7l-5.5-0.2c-0.3-0.1-0.7,0.2-0.7,0.5c0,0.3,0.1,0.6,0.4,0.8l0,0
		l5.4,1.5c0.8,0.2,1.6-0.2,1.6-1C455.3,460.3,455,459.8,454.1,459.7L454.1,459.7z M426.6,460.8c0.3-0.1,0.5-0.4,0.4-0.8
		c-0.1-0.3-0.4-0.6-0.8-0.5l-5.5,0.2c-0.9,0.1-1.1,0.6-1.1,1.6c0,0.8,0.9,1.2,1.6,1L426.6,460.8L426.6,460.8z M431.1,461.1l-5.9,4.1
		c-0.2,0.1-0.3,0.2-0.5,0.3c-0.8,0.7-0.9,2-0.2,2.8c0.1,0.1,0.1,0.1,0.2,0.2c0.9,0.8,2.3,0.8,3.2,0c0.1-0.1,0.2-0.2,0.3-0.4l4.6-5.6
		c0.3-0.4,0.2-1-0.2-1.3C432.2,460.8,431.5,460.7,431.1,461.1L431.1,461.1z M437.4,434.7c0,0,2.6,3,2.6,5.5c0.2,2.2-1.5,4.1-3.7,4.3
		c-0.1,0-0.2,0-0.3,0c-2.3,0-4.2-1.9-4.2-4.2c0,0,0-0.1,0-0.1v-0.6c-2.4,2.9-3.7,6.7-3.7,10.5c0,5.1,4.1,9.3,9.2,9.3
		s9.3-4.1,9.3-9.2c0,0,0,0,0,0C446.7,443.9,443.6,436.6,437.4,434.7L437.4,434.7z M437.1,455.9c-2,0-3.7-1.6-3.7-3.6
		c0-1.9,1.4-3.4,3.3-3.6c2.1-0.3,4-1.4,5.4-3c0.5,1.5,0.7,3.1,0.7,4.7C442.7,453.4,440.2,455.9,437.1,455.9L437.1,455.9z"/>
	<rect x="493.3" y="452.6" class="st9" width="240" height="2.7"/>
	<circle class="st7" cx="623.4" cy="454" r="6.3"/>
	<rect x="493.3" y="452.6" class="st7" width="130.7" height="2.7"/>
	<path class="st8" d="M431.9,556.7c0,0.9,0.8,1.7,1.7,1.7h7.6c0.9,0,1.7-0.8,1.7-1.7v-1.5h-11V556.7z M437.4,525.4
		c-6.9,0-12.4,5.2-12.4,11.5c0,3.9,2,7.4,5.3,9.5v3.7c0,0.9,0.8,1.7,1.8,1.7c0,0,0,0,0,0h10.6c0.9,0,1.7-0.7,1.8-1.6c0,0,0,0,0,0
		v-3.7c3.3-2.1,5.3-5.6,5.3-9.5C449.8,530.6,444.2,525.4,437.4,525.4L437.4,525.4z"/>
	<rect x="493.3" y="540.6" class="st9" width="240" height="2.7"/>
	<circle class="st7" cx="685.4" cy="541.9" r="6.3"/>
	<rect x="493.3" y="540.6" class="st7" width="192.7" height="2.7"/>
	<path class="st8" d="M429.1,609.1v19.2h5.5v16.5l11-22h-5.5l5.5-13.7H429.1z"/>
	<rect x="493.3" y="625.7" class="st9" width="240" height="2.7"/>
	<circle class="st7" cx="567.4" cy="627" r="6.3"/>
	<rect x="493.3" y="625.7" class="st7" width="74.1" height="2.7"/>
	<ellipse class="st7" cx="344.1" cy="780.5" rx="59.5" ry="11.4"/>
	<ellipse class="st10" cx="343.1" cy="775.7" rx="6.9" ry="9.1"/>
	<ellipse class="st10" cx="343.1" cy="764.6" rx="6.9" ry="9.1"/>
	<ellipse class="st10" cx="343.1" cy="753.5" rx="6.9" ry="9.1"/>
	<ellipse class="st10" cx="343.1" cy="742.5" rx="6.9" ry="9.1"/>
	<ellipse class="st10" cx="343.1" cy="731.4" rx="6.9" ry="9.1"/>
	<ellipse class="st10" cx="343.1" cy="720.3" rx="6.9" ry="9.1"/>
	<ellipse class="st10" cx="343.1" cy="709.2" rx="6.9" ry="9.1"/>
	<path class="st7" d="M369,633.4c0.9-1.2,1.8-2.5,2.6-3.8l-18.2-3l19.7,0.2c3.8-8.3,4-17.8,0.6-26.3l-26.4,13.7l24.3-17.9
		c-9.2-15.9-29.5-21.3-45.3-12.1s-21.3,29.5-12.1,45.3c0.8,1.4,1.7,2.7,2.6,3.9c-1.5,1.9-2.7,3.9-3.8,6l23.6,12.3l-25.2-8.4
		c-3.6,10.6-1.6,22.3,5.3,31.1c-11.3,14.4-8.8,35.2,5.6,46.6c14.4,11.3,35.2,8.8,46.6-5.6c9.5-12,9.5-29,0-41
		C378.5,662.4,378.5,645.5,369,633.4L369,633.4z"/>
	<path class="st11" d="M309.8,653.9c0,7.4,2.5,14.7,7.1,20.5c-11.3,14.4-8.8,35.2,5.6,46.6c14.4,11.3,35.2,8.8,46.6-5.6
		c9.5-12,9.5-29,0-41C373.4,668.8,309.8,650.2,309.8,653.9z"/>
	<ellipse class="st7" cx="213.9" cy="681.3" rx="91.9" ry="17.7"/>
	<ellipse class="st10" cx="215.4" cy="673.7" rx="10.7" ry="14"/>
	<ellipse class="st10" cx="215.4" cy="656.6" rx="10.7" ry="14"/>
	<ellipse class="st10" cx="215.4" cy="639.5" rx="10.7" ry="14"/>
	<ellipse class="st10" cx="215.4" cy="622.3" rx="10.7" ry="14"/>
	<ellipse class="st10" cx="215.4" cy="605.2" rx="10.7" ry="14"/>
	<ellipse class="st10" cx="215.4" cy="588.1" rx="10.7" ry="14"/>
	<ellipse class="st10" cx="215.4" cy="571" rx="10.7" ry="14"/>
	<path class="st7" d="M175.4,453.8c-1.5-1.9-2.8-3.8-4-5.9l28.1-4.6l-30.4,0.2c-5.9-12.8-6.3-27.5-1-40.6l40.8,21.2l-37.6-27.7
		c14.2-24.5,45.6-32.8,70.1-18.6c24.5,14.2,32.8,45.6,18.6,70.1c-1.2,2.1-2.5,4-4,5.9c2.3,2.9,4.2,6,5.8,9.4l-36.5,19l38.9-13.1
		c5.5,16.4,2.4,34.5-8.3,48.1c17.5,22.3,13.7,54.5-8.6,72c-22.3,17.5-54.5,13.7-72-8.6c-14.6-18.6-14.6-44.8,0-63.4
		C160.8,498.6,160.8,472.4,175.4,453.8L175.4,453.8z"/>
	<path class="st11" d="M267,485.5c0,11.5-3.9,22.7-11,31.7c17.5,22.3,13.7,54.5-8.6,72c-22.3,17.5-54.5,13.7-72-8.6
		c-14.6-18.6-14.6-44.8,0-63.4C168.5,508.4,267,479.7,267,485.5z"/>
	<ellipse class="st2" cx="882" cy="793.6" rx="99" ry="21"/>
	
		<linearGradient id="SVGID_1_" gradientUnits="userSpaceOnUse" x1="287.676" y1="-32.6627" x2="287.676" y2="377.2118" gradientTransform="matrix(-1 0 0 -1 1172.9801 773.28)">
		<stop  offset="0" style="stop-color:#808080;stop-opacity:0.25"/>
		<stop  offset="0.54" style="stop-color:#808080;stop-opacity:0.12"/>
		<stop  offset="1" style="stop-color:#808080;stop-opacity:0.1"/>
	</linearGradient>
	<path class="st12" d="M845.2,796c0.1,0.5,0.2,1,0.4,1.5c0.5,1.8,1.7,3.4,3.3,4.6c0.8,0.5,1.7,0.8,2.6,1c6.1,1.5,12.5,1,18.8,1.6
		s12.9,2.3,19.1,0.5c1.5-0.4,3-1.2,3.6-2.7c0-0.1,0.1-0.2,0.1-0.3c4.5,0.6,9,1,13.3-0.2c1.5-0.4,3-1.2,3.6-2.7
		c0.2-0.8,0.3-1.6,0.2-2.4c-0.2-4.2-0.4-8.5-1.7-12.5c-0.5-1.4-1-2.8-1.7-4.2c-1-2.1-2-4.2-3.2-6.2l-0.3-0.7
		c0.8,0.4,1.7,0.8,2.5,1.2c3.7-11.5,6.4-23.4,8.1-35.4c2.1-14.3,1.6-28.8-1.2-42.9c-0.9-4.7-1.2-9.5-1-14.3
		c0.4-9.5,2.6-18.8,4.8-28.1c1.1-4.7,2.2-9.4,3.3-14.1c1.6-6.7,3.2-13.4,4.8-20.1c1.1-4.4,2.1-9,1.8-13.6c-0.2-2.5-0.7-5-1.5-7.4
		c-1.1-3.9-2.5-7.7-4.2-11.3c0.5,0.1,1,0,1.4-0.3c0.3-0.3,0.5-0.8,0.6-1.3l2.5-9.1c1.8-6.4,3.5-12.8,4-19.4c0.5-7.5-0.6-15-0.8-22.4
		c-0.3-9.7,0.9-19.5,0.2-29.2c-0.1-2.1-0.4-4.2-0.6-6.3c0.1-1.1,0.1-2.2,0.2-3.3c0.2-5.4,0.1-10.8-1.9-15.8
		c-1.4-3.6-3.6-6.7-6.6-9.1c0.1-0.5,0.2-0.9,0.3-1.3l2.1-10c2.3-11.1,4.7-22.5,3.3-33.7c-1.2-10-5.9-20.2-13.8-25.5l-0.1,0l-0.8-0.5
		l-0.2-0.1c-0.3-0.2-0.5-0.3-0.8-0.5l-0.2-0.1c-0.3-0.2-0.7-0.4-1-0.5c-2.5-1.1-5.2-2-8-2.4l-1.1-0.2c-1.1-0.2-2.2-0.3-3.3-0.3H895
		c-1.1,0-2.2,0.1-3.3,0.2c-0.4,0-0.8,0.1-1.2,0.2l-1.2,0.3c-2.4,0.7-4.8,1.2-7.2,1.5c-0.5,0-0.9,0.1-1.4,0.1c-1.4,0-2.8-0.1-4.2-0.2
		c-0.7,0-1.4-0.1-2.1-0.1c-1.2,0-2.3,0.1-3.4,0.3c-2,0.4-3.8,1.3-5.4,2.5c-1.2,0.9-2.3,1.8-3.3,2.9c-0.8,0.9-1.6,1.8-2.3,2.7
		c-0.3,0.4-0.7,0.9-1,1.4l-0.5,0.7c-0.3,0.5-0.6,1-0.8,1.5c-0.4,0.8-0.7,1.5-1,2.3c-0.8,2.1-1,4.3-0.5,6.5c0.1,0.5,0.3,0.9,0.4,1.4
		c-1.8,3.6-2.8,7.6-2.8,11.6c0,11,6.9,20.3,16.3,23.3c1.2,2.1,2.5,4.8,3.7,7.4c-2.5,1.8-4.6,4-6.4,6.5c-5.9-0.3-11.6,4.3-13.5,10.2
		c-0.7,2.3-0.9,4.6-0.7,7c-1.2,4.9-1.3,10.2-1.4,15.4c-0.2,8.1-0.6,16.2-1,24.3c-0.4,8.1-0.8,16.1-1.3,24.2
		c-0.1,2.3-0.2,4.6-0.5,6.9c-1.5,0.4-1.5,2.4-1.4,4c0.5,4.3,1.2,8.6,1.7,12.9c-0.7,2.6-0.8,5.4-0.4,8.1l0.8,0.4
		c0,2.8-0.5,5.5-1.2,8.2c-0.1,0.5-0.3,0.9-0.6,1.3c0.4-0.2,0.9-0.3,1.3-0.3c-1.3,4.2-2.3,8.5-3.8,12.6c-0.8,2.1-1.7,4.2-2.3,6.4
		c-0.6,2.1-1,4.1-1.4,6.3c-0.3,1.2-0.4,2.4-0.5,3.7c-0.3,4.8,1.6,9.5,5.3,12.7c0,0.8-0.1,1.6-0.1,2.5c0,5.8,0.9,11.7,0.7,17.5
		c-0.3,7.9-1.7,15.3-1.7,23.2c-0.1,21.8,5.8,43.1,12.9,63.6c2.8,8.1,5.7,16.2,8.8,24.1c1.8,4.7,3.9,10,1.9,14.6
		c0.7-0.3,1.3-0.5,2-0.8c-1,2.6-2.6,5-4.6,7c-3.1,3.1-7.1,5-11.5,5.4c-2.1,0.2-4.2,0.1-6.2,0.8C846.9,791.9,845,793.8,845.2,796z
		 M870.8,682.9c2.2-11.3,6.3-22.1,12.3-31.9l0.1,0.7c0.3,3.2,0.9,6.4,1.5,9.7c1.3,6.8,2.9,13.5,2.7,20.3c-0.3,7.2,0.2,14.4,1.3,21.5
		c0.3,2.8,1,5.5,2,8.1c0.7,1.6,1.5,3,2,4.6c0.5,1.9,0.8,3.8,0.8,5.8c0.9,16-0.1,32.1-2.9,47.9c-0.7,0-1.1,0.1-1.1,0.2
		c-0.4,2.7-1.3,5.3-2.7,7.7l-0.1-0.2c-0.2-0.4-0.5-0.9-0.8-1.4l0.8,0.1c-2.3-4.9-2.1-10.7-2.2-16.2c-0.2-7.5-1-14.9-2.3-22.3
		c-2-11.1-5.4-21.9-10.2-32.2c-1-2.2-1.7-4.4-2-6.8C869.4,693.3,869.6,688,870.8,682.9z M912.1,563.9c-0.4-0.5-0.8-1-1.2-1.5
		c-1-1.1-2.2-2.3-1.9-3.8c0.2-0.6,0.4-1.1,0.8-1.5c0.8-1,1.7-1.9,2.7-2.8l0.3-0.3C912.5,557.3,912.3,560.6,912.1,563.9L912.1,563.9z
		"/>
	<path class="st7" d="M926.6,491.3l1.1,8.5c0.4,2.9,0.7,5.8,0.9,8.6c0.7,9.6-0.6,19.3-0.3,28.9c0.3,7.4,1.4,14.8,0.9,22.2
		c-0.5,6.5-2.4,12.9-4.2,19.2l-2.6,9c-0.1,0.5-0.3,0.9-0.7,1.2c-0.5,0.3-1.1,0.4-1.7,0.3l-11.7-1c0.8-3.4,1.6-7,2-10.5
		c0.3-2.8,0.5-5.5,0.7-8.3c0.6-8.7,1.3-17.3,2-26l1.3-15.2c0.5-6.6,1.1-13.2,2.7-19.6C918.7,502.1,922,496.1,926.6,491.3z"/>
	<path class="st11" d="M926.6,491.3l1.1,8.5c0.4,2.9,0.7,5.8,0.9,8.6c0.7,9.6-0.6,19.3-0.3,28.9c0.3,7.4,1.4,14.8,0.9,22.2
		c-0.5,6.5-2.4,12.9-4.2,19.2l-2.6,9c-0.1,0.5-0.3,0.9-0.7,1.2c-0.5,0.3-1.1,0.4-1.7,0.3l-11.7-1c0.8-3.4,1.6-7,2-10.5
		c0.3-2.8,0.5-5.5,0.7-8.3c0.6-8.7,1.3-17.3,2-26l1.3-15.2c0.5-6.6,1.1-13.2,2.7-19.6C918.7,502.1,922,496.1,926.6,491.3z"/>
	<path class="st13" d="M905.8,780.3c0.7,1.4,1.3,2.7,1.8,4.2c1.3,3.9,1.5,8.2,1.7,12.4c0.1,0.8,0,1.6-0.2,2.4
		c-0.6,1.5-2.2,2.3-3.8,2.7c-6.5,1.8-13.3,0.1-20-0.5s-13.3-0.2-19.7-1.6c-1-0.2-1.9-0.5-2.7-0.9c-1.6-1.1-2.8-2.6-3.5-4.5
		c-0.2-0.5-0.3-1-0.4-1.5c-0.2-2.2,1.7-4.1,3.8-4.8c2.1-0.7,4.3-0.6,6.5-0.8c9.3-0.9,16.8-8,18.2-17.2c0.1-0.5,10.8-0.2,12,0.4
		c1.3,0.7,2.1,2.5,2.9,3.8C903.6,776.2,904.7,778.3,905.8,780.3z"/>
	<path class="st11" d="M905.8,780.3c0.7,1.4,1.3,2.7,1.8,4.2c1.3,3.9,1.5,8.2,1.7,12.4c0.1,0.8,0,1.6-0.2,2.4
		c-0.6,1.5-2.2,2.3-3.8,2.7c-6.5,1.8-13.3,0.1-20-0.5s-13.3-0.2-19.7-1.6c-1-0.2-1.9-0.5-2.7-0.9c-1.6-1.1-2.8-2.6-3.5-4.5
		c-0.2-0.5-0.3-1-0.4-1.5c-0.2-2.2,1.7-4.1,3.8-4.8c2.1-0.7,4.3-0.6,6.5-0.8c9.3-0.9,16.8-8,18.2-17.2c0.1-0.5,10.8-0.2,12,0.4
		c1.3,0.7,2.1,2.5,2.9,3.8C903.6,776.2,904.7,778.3,905.8,780.3z"/>
	<path class="st13" d="M887.9,783.5c0.7,1.3,1.3,2.7,1.8,4.2c1.3,4,1.5,8.2,1.7,12.4c0.1,0.8,0,1.6-0.2,2.4
		c-0.6,1.5-2.2,2.3-3.8,2.7c-6.5,1.7-13.3,0.1-20-0.5s-13.3-0.2-19.7-1.6c-1-0.2-1.9-0.5-2.7-1c-1.6-1.1-2.9-2.6-3.5-4.5
		c-0.2-0.5-0.3-1-0.4-1.5c-0.2-2.2,1.7-4.1,3.8-4.8c2.1-0.7,4.3-0.6,6.5-0.8c9.3-1,16.7-8,18.2-17.2c0.1-0.5,10.8-0.2,12,0.4
		c1.3,0.7,2.1,2.5,2.9,3.8C885.8,779.4,886.9,781.4,887.9,783.5z"/>
	<path class="st14" d="M841.4,677.3c-0.1,21.6,6.1,42.7,13.5,63c2.9,8,6,16,9.3,23.9c1.9,4.7,4.1,9.9,2,14.5
		c6-2.3,12.1-3.6,18.4-2.6c-2.4-4.9-2.2-10.6-2.3-16c-0.2-7.4-1-14.8-2.4-22.1c-2.1-11.1-5.7-21.8-10.8-31.9c-1-2.1-1.7-4.4-2.1-6.7
		c-0.8-5.1-0.2-10.4,0.9-15.5c2.3-11.2,6.7-22,12.9-31.6l0.1,0.6c0.4,3.2,0.9,6.4,1.6,9.6c1.4,6.7,3.1,13.4,2.8,20.1
		c-0.3,7.1,0.2,14.3,1.3,21.3c0.4,2.8,1.1,5.5,2.2,8.1c0.7,1.5,1.6,3,2.1,4.6c0.5,1.9,0.8,3.8,0.8,5.7c0.8,16.3,0,32.8-3.3,48.7
		c5.6-0.4,11.1,1.2,16.1,3.7c3.9-11.4,6.7-23.2,8.5-35.1c2.2-14.1,1.7-28.5-1.3-42.5c-0.9-4.7-1.3-9.4-1-14.2
		c0.4-9.4,2.8-18.7,5.1-27.9l3.5-14c1.7-6.7,3.3-13.3,5-19.9c1.1-4.4,2.2-8.9,1.9-13.5c-0.2-2.5-0.8-4.9-1.6-7.3
		c-2.5-8.1-6.2-15.7-11.1-22.6c-19.3,1.1-38.8-0.7-58-2.2c-0.9-0.2-1.9,0-2.7,0.5c-0.7,0.7-1,1.5-1.1,2.5l-7.2,41
		c-1.2,5.7-1.8,11.5-2,17.3c0,5.8,0.9,11.6,0.7,17.4C842.9,662.1,841.4,669.5,841.4,677.3z"/>
	<path class="st11" d="M881,653c0.4,3.2,0.9,6.4,1.6,9.6c4.2-7.3,8.7-14.3,12.6-21.8c1-1.9,1.9-3.8,2.9-5.8l2.8-5.8
		c0.5-1.1,1.1-2.2,1.5-3.3c0.8-1.6,1.4-3.3,1.8-5c-1.4-0.3-4.9,3.5-5.9,4.5c-2.1,2.1-4.1,4.3-6,6.6c-2.3,2.6-4.4,5.3-6.4,8.2
		C883.6,644.2,881.9,648.5,881,653z"/>
	<path class="st15" d="M864.9,454.1c0,0,10.7,17,8.7,20.6s33.7-3.2,33.7-3.2s-19.4-17-17.4-24.2S864.9,454.1,864.9,454.1z"/>
	<circle class="st15" cx="874.4" cy="435" r="24.2"/>
	<path class="st7" d="M864.5,472c2.6-3.6,6.1-6.4,10.2-8.2c2.3-0.8,4.8-1.4,7.2-1.8l9.7-1.7c2.4-0.4,4.9-0.8,7.1,0.2
		c1.1,0.6,2.1,1.3,3,2.2c3.3,3.1,6.6,6.5,10.8,8.3c1.2,0.5,2.3,0.8,3.5,1.3c4.7,2,8.2,6.3,10.2,11c2.1,4.9,2.2,10.3,2,15.7
		c0,1.9-0.2,3.7-0.5,5.5c-0.5,1.7-1.1,3.4-1.8,5.1c-1.3,3.5-2.4,7.1-3.3,10.7c-2.5,9.6-4.6,19.2-6.2,29c-0.1,1.4-0.6,2.8-1.2,4
		c-0.9,1.2-2.1,2.3-3.3,3.2c-1,0.8-1.9,1.8-2.8,2.8c-0.4,0.4-0.7,0.9-0.9,1.5c-0.3,1.4,1,2.7,2,3.7c2.2,2.2,3.7,4.9,4.5,7.9
		c0.5,0.6,0.8,1.4,0.7,2.2c-0.2,0.5-0.3,1.1-0.2,1.7c0.2,0.5,0.5,1,0.9,1.4c0.9,1.2,1.3,2.8,1,4.3c-7.5,3.3-15.5,5.1-23.7,5.5
		c-2,0.1-4,0.1-6,0.3c-1.4,0.2-2.8,0.5-4.2,0.6c-2.1,0.2-4.1,0.2-6.2,0.2c-10.8-0.2-21.8-0.5-31.7-4.8c-0.9-5.1,1.1-10.2,2.3-15.2
		c2-8,2.5-16.2,4-24.3c1-5.5,2.5-10.9,3.3-16.5c0.8-5.6,1-11.3-0.5-16.7c-1.3-4.8-1.8-9.7-3.2-14.4s-2.4-9.9-0.8-14.7
		C852.3,476.3,858.4,471.6,864.5,472z"/>
	<path class="st14" d="M852.7,422.2c-1.2-4.3,1.1-8.8,3.9-12.3c3-3.8,6.8-7.1,11.5-8.1c3.8-0.8,7.8,0.2,11.6-0.1
		c3.4-0.3,6.7-1.5,10.1-2c3.1-0.3,6.2-0.2,9.3,0.4c2.9,0.4,5.7,1.2,8.5,2.4c10.3,4.6,16.3,15.8,17.7,27s-1,22.4-3.5,33.4l-2.2,9.9
		c-2.3,10.3-4.6,20.7-5.2,31.3c-0.6,10.6,0.5,21.4,4.9,31.1c-14.1-7.6-25-19.9-30.7-34.8c-1.6-4.1-2.7-8.3-4.5-12.4
		c-1.5-3.5-3.4-6.7-4.7-10.3c-1.5-4-2.2-8.2-2.1-12.5c0.1-3.2,0.6-6.4,0.5-9.6s-0.9-6.5-3.1-8.9c-2-2-4.8-3-7.3-4.3
		c-4-2-7.5-4.9-10.2-8.5c-1.6-2.1-1.7-3-2.1-5.4S853.3,424.5,852.7,422.2z"/>
	<path class="st15" d="M852.6,603.9c-0.3,2.5,0.2,5-0.3,7.5c-0.4,1.8-1.4,3.5-1.9,5.3c-0.6,2.1-0.8,4.2-0.8,6.4
		c-0.1,1.8,0.1,4,1.7,4.8c0.7,0.4,1.5,0.4,2.3,0.7c0.7,0.3,1.3,1.2,0.9,1.9c-0.4,0.7-1.1,0.6-1.8,0.7s-1.4,0.8-1,1.4
		c0.2,0.2,0.4,0.3,0.6,0.4c0.7,0.2,1.3,0.5,1.9,0.9c0.6,0.4,0.9,1.1,0.8,1.8c-0.1,0.6-0.8,1-1.4,0.8c-0.1,0-0.2-0.1-0.2-0.1
		c0.3,0.6,0.5,1.3,0.5,2c-2.6,1.1-5.4-0.3-7.8-1.7c-1-0.6-2-1.2-3-1.9c-3.9-3-6.1-7.8-5.8-12.8c0.1-1.2,0.3-2.4,0.6-3.7
		c0.4-2.1,0.9-4.2,1.5-6.2c0.7-2.2,1.6-4.2,2.4-6.3c1.7-4.5,2.8-9.2,4.4-13.7c0.1-0.5,0.4-0.9,0.8-1.2c0.3-0.2,0.7-0.2,1.1-0.2
		c1.8-0.1,3.5,0.1,5.2,0.5c1,0.3,2.7,1,3.2,2s-0.3,1.8-0.7,2.7C853.9,598.3,853,601.1,852.6,603.9z"/>
	<path class="st11" d="M854.3,482.4c-0.5,0.5-0.9,1.1-1.3,1.8c-3.4,6.3-3.5,13.7-3.6,20.8c-0.2,8-0.6,16-1.1,24l-1.3,24
		c-0.1,2.3-0.3,4.6-0.6,6.8c-1.5,0.4-1.6,2.4-1.4,4c1.1,9.8,3.9,19.8,1,29.3c-0.1,0.5-0.3,0.9-0.7,1.3c1.5-0.5,3-0.5,4.5-0.1
		c1.4,0.3,2.8,0.8,4.3,1.2c1.8,0.4,3.9,0.6,5.1,2c1.4-4.2,2.5-8.5,3.3-12.9c0.7-4,0.9-8.1,2.5-11.8c0.7-1.5,1.5-2.9,2.3-4.3
		c4.2-7.5,6.3-15.9,8.3-24.3c0.9-4,1.1-8,0.6-12.1c-0.3-1.8-0.5-3.7-0.5-5.6c0.1-2,0.4-3.9,0.8-5.8c0.8-5.7,0.5-11.4-1.2-16.9
		c-1.5-5.1-2.8-10.5-6-14.7S859.6,482.5,854.3,482.4z"/>
	<path class="st7" d="M853.1,481.6c-0.5,0.5-0.9,1.1-1.3,1.8c-3.4,6.2-3.5,13.7-3.6,20.8c-0.2,8-0.6,16-1.1,24l-1.3,24
		c-0.1,2.3-0.3,4.6-0.6,6.8c-1.5,0.4-1.6,2.4-1.4,4c1.1,9.8,3.8,19.8,1,29.3c-0.1,0.5-0.3,0.9-0.7,1.3c1.5-0.5,3-0.5,4.5-0.1
		c1.4,0.3,2.8,0.8,4.3,1.2c1.8,0.4,3.9,0.6,5.1,2c1.4-4.2,2.5-8.5,3.3-12.9c0.7-4,0.9-8.1,2.5-11.8c0.7-1.5,1.5-2.9,2.3-4.3
		c4.2-7.5,6.3-15.9,8.3-24.3c0.9-4,1.1-8,0.6-12.1c-0.8-3.8-0.7-7.7,0.3-11.4c0.8-5.7,0.5-11.4-1.2-16.9c-1.5-5.1-2.8-10.5-6-14.7
		S858.4,481.7,853.1,481.6z"/>
	<g class="st16">
		<path d="M856.6,410c3-3.8,6.8-7.1,11.5-8.1c3.8-0.8,7.8,0.2,11.6-0.1c3.4-0.3,6.7-1.5,10.1-2c3.1-0.3,6.2-0.2,9.3,0.4
			c2.9,0.4,5.7,1.2,8.5,2.4c1.5,0.7,2.9,1.4,4.2,2.4c-2.4-0.9-4.9-1.6-7.5-2c-3.1-0.6-6.2-0.7-9.3-0.4c-3.4,0.4-6.7,1.7-10.2,1.9
			c-3.9,0.3-7.8-0.6-11.6,0.1c-4.7,0.9-8.5,4.3-11.5,8.1c-2.8,3.5-5.1,8-3.9,12.3c0.6,2.3,2.1,4.2,2.5,6.6s0.5,3.3,2.1,5.4
			c2.1,2.7,4.5,5,7.3,6.8c-0.8-0.4-1.6-0.7-2.3-1.1c-4-2-7.5-4.9-10.2-8.5c-1.6-2.1-1.7-3-2.1-5.4s-1.8-4.3-2.5-6.6
			C851.5,417.9,853.8,413.5,856.6,410z"/>
		<path d="M874.7,447c-0.4-0.4-0.9-0.8-1.3-1.2c2.3,1.1,4.7,2.1,6.5,4c2.2,2.3,3,5.6,3.1,8.9s-0.5,6.4-0.5,9.6
			c-0.1,4.3,0.6,8.5,2.1,12.5c1.3,3.5,3.2,6.8,4.7,10.3c1.7,4,2.9,8.3,4.5,12.3c5,12.9,13.9,24,25.4,31.6c0.1,0.1,0.1,0.3,0.2,0.4
			c-14.1-7.6-25-19.9-30.7-34.8c-1.6-4.1-2.7-8.3-4.5-12.4c-1.5-3.5-3.4-6.7-4.7-10.3c-1.5-4-2.2-8.2-2.1-12.5
			c0.1-3.2,0.6-6.4,0.5-9.6S876.9,449.3,874.7,447z"/>
	</g>
	<path class="st17" d="M132.1,121.8h63.7c5.1,0,9.1,4.1,9.1,9.1v39.7c0,5.1-4.1,9.1-9.1,9.1h-63.7c-5.1,0-9.1-4.1-9.1-9.1v-39.7
		C123,125.9,127.1,121.8,132.1,121.8z"/>
	<path class="st17" d="M214.1,223.8h63.7c5.1,0,9.1,4.1,9.1,9.1v39.7c0,5.1-4.1,9.1-9.1,9.1h-63.7c-5.1,0-9.1-4.1-9.1-9.1v-39.7
		C205,227.9,209.1,223.8,214.1,223.8z"/>
	<path class="st17" d="M896.1,131.8h63.7c5.1,0,9.2,4.1,9.2,9.1v39.7c0,5.1-4.1,9.1-9.2,9.1h-63.7c-5.1,0-9.2-4.1-9.2-9.1v-39.7
		C887,135.9,891.1,131.8,896.1,131.8z"/>
</g>
</svg>
