<svg xmlns="http://www.w3.org/2000/svg" xmlns:xlink="http://www.w3.org/1999/xlink" viewBox="0 0 1099.99 784.1"><defs><linearGradient id="a" x1="956.74" y1="2259.67" x2="1113.35" y2="2259.67" gradientTransform="matrix(-1, 0, 0, 1, 1962.78, -1707.79)" gradientUnits="userSpaceOnUse"><stop offset="0" stop-color="gray" stop-opacity="0.25"/><stop offset="0.54" stop-color="gray" stop-opacity="0.12"/><stop offset="1" stop-color="gray" stop-opacity="0.1"/></linearGradient></defs><title>displays_empty_image</title><ellipse cx="965.01" cy="767.1" rx="64" ry="17" style="fill:#5a576e"/><path d="M1070.5,694.9c-24.3,20.2-59,28.6-92.5,33.8l-5.6.9c-35,5.2-70.4,8-105.9,9.7-19,.9-38,1.6-57,2.2l-14.9.4c-19.3.6-38.7,1.1-58.1,1.7l-57,1.5c-24.3.6-48.7,1.1-73,1.5q-28.5.45-57,.6c-24.3.1-48.7.1-73-.1-19-.2-38-.5-57-1-24.3-.6-48.7-1.5-73-2.8-16.5-.8-33-1.8-49.5-2.9l-7.5-.5c-70.8-5.1-142.8-14.3-204.7-43.2l-1.7-.8c-.8-.4-1.7-.8-2.5-1.2A217.16,217.16,0,0,1,48,675.6c-18.3-13.1-33.4-29-41.4-47.9-12.5-29.7-5.9-63,8.4-92s35.8-55.2,54.3-82.5c5.4-8,10.6-16.3,15.4-24.8,30-53.4,44.9-115.1,13.4-166.6a231.6,231.6,0,0,0-13.4-19c-7.7-10-15.5-20-20.7-31.1-12.3-25.8-9.6-54.7-5.2-82.3,6-36.6,17-76,51.4-98.9C145.9,6.8,196.5,8,240.8,16.5c68.8,13.2,132.4,40.8,196.5,65.7s131.3,47.7,201.8,50.1a328.17,328.17,0,0,0,45.4-1.6h0a290.37,290.37,0,0,0,59.1-12.4c27.8-9.1,53-22.9,71.7-42,40.2-40.8,115.6-43.9,170-19.3,51.9,23.5,85.5,73.4,83,123.1C1065.5,235.5,1024,281,986,327.7c-4.6,5.7-9.2,11.3-13.6,17.1-2.5,3.2-4.9,6.4-7.3,9.6h0q-6.3,8.55-12,17.1c-19.4,29.5-33.2,65-19.8,96.9,7.5,17.8,21.8,31.5,39.1,43.4,38.7,26.6,92,44.6,116,81.8C1109.1,625.8,1101.4,669.2,1070.5,694.9Z" transform="translate(0.01 -0.3)" style="fill:#5a576e"/><g style="opacity:0.5"><path d="M555.5,549.4a26.35,26.35,0,0,0,.2,2.8c7.8-3.1,15.4-6.4,22.9-10a18.1,18.1,0,0,0,10.6-5.2c2.2-1.1,4.4-2.3,6.5-3.4a22.8,22.8,0,0,0-1.7-3c-4.2-6.7-10.6-10.8-17.7-10.6s-13.2,4.8-16.9,11.7A34.82,34.82,0,0,0,555.5,549.4Z" transform="translate(0.01 -0.3)" style="fill:#262333"/><path d="M554.3,514.4a34.3,34.3,0,0,0,5.2,17.3c4.2,6.6,10.6,10.8,17.7,10.6.5,0,1-.1,1.5-.1a18.1,18.1,0,0,0,10.6-5.2,25.35,25.35,0,0,0,4.9-6.4,36,36,0,0,0-1.1-35c-4.2-6.7-10.6-10.8-17.7-10.6s-13.1,4.8-16.9,11.7A34.06,34.06,0,0,0,554.3,514.4Z" transform="translate(0.01 -0.3)" style="fill:#262333"/><ellipse cx="575.12" cy="478.72" rx="21.9" ry="28.6" transform="matrix(1, -0.03, 0.03, 1, -15.39, 18.83)" style="fill:#262333"/><ellipse cx="573.92" cy="443.72" rx="21.9" ry="28.6" transform="translate(-14.24 18.77) rotate(-1.88)" style="fill:#262333"/><ellipse cx="572.82" cy="408.72" rx="21.9" ry="28.6" transform="translate(-13.09 18.71) rotate(-1.88)" style="fill:#262333"/><path d="M646.8,166.8a97.52,97.52,0,0,0,7.7-12.3L596.8,147l62.1-1.6a105,105,0,0,0-.7-83l-81.9,45.9,75-59a104.72,104.72,0,1,0-169,122.9A105.31,105.31,0,0,0,471,191.7L546.8,228l-80.4-24.1a104.94,104.94,0,0,0,20.1,97.8A104.73,104.73,0,1,0,651,296.3,104.88,104.88,0,0,0,646.8,166.8Z" transform="translate(0.01 -0.3)" style="fill:#262333"/><path d="M461.9,237.6a104.44,104.44,0,0,0,24.5,64,104.73,104.73,0,1,0,164.5-5.4C664.4,277.9,461.5,225.9,461.9,237.6Z" transform="translate(0.01 -0.3)" style="fill:#262333;opacity:0.10000000149011612;isolation:isolate"/></g><g style="opacity:0.5"><path d="M326.2,733.6c0,.7-.1,1.3-.1,2-5.5-2.2-11-4.6-16.3-7.1a13.37,13.37,0,0,1-7.5-3.7c-1.6-.8-3.1-1.6-4.6-2.4a11.25,11.25,0,0,1,1.2-2.1c3-4.7,7.5-7.7,12.6-7.5s9.4,3.4,12,8.3A27.85,27.85,0,0,1,326.2,733.6Z" transform="translate(0.01 -0.3)" style="fill:#262333"/><path d="M327,708.7a25.16,25.16,0,0,1-3.6,12.3c-3,4.7-7.5,7.7-12.6,7.5l-1-.1a13.37,13.37,0,0,1-7.5-3.7,18.82,18.82,0,0,1-3.5-4.5,25.4,25.4,0,0,1,.8-24.9c3-4.7,7.5-7.7,12.6-7.5s9.4,3.4,12,8.3A25,25,0,0,1,327,708.7Z" transform="translate(0.01 -0.3)" style="fill:#262333"/><ellipse cx="312.18" cy="683.35" rx="20.4" ry="15.6" transform="translate(-380.68 973.49) rotate(-88.19)" style="fill:#262333"/><ellipse cx="312.94" cy="658.44" rx="20.4" ry="15.6" transform="translate(-355.04 950.13) rotate(-88.19)" style="fill:#262333"/><ellipse cx="313.82" cy="633.53" rx="20.4" ry="15.6" transform="translate(-329.3 926.89) rotate(-88.19)" style="fill:#262333"/><path d="M260.9,461.4a79.44,79.44,0,0,1-5.5-8.7l41.1-5.5-44.2-1a74.91,74.91,0,0,1,.4-59.1L311,419.7l-53.4-41.9a74.56,74.56,0,1,1,126.6,78.8,73.08,73.08,0,0,1-6.1,8.5,74.2,74.2,0,0,1,8.1,13.9l-53.9,25.9,57.2-17.2a74.62,74.62,0,0,1-14.2,69.6,74.52,74.52,0,1,1-117.1-3.7,74.39,74.39,0,0,1,2.7-92.2Z" transform="translate(0.01 -0.3)" style="fill:#262333"/><path d="M392.5,511.6a74.16,74.16,0,0,1-17.4,45.6A74.52,74.52,0,1,1,258,553.5C248.4,540.5,392.8,503.3,392.5,511.6Z" transform="translate(0.01 -0.3)" style="fill:#262333;opacity:0.10000000149011612;isolation:isolate"/></g><g style="opacity:0.5"><path d="M846.9,603.5c0,.7-.1,1.3-.1,2-5.5-2.2-11-4.6-16.3-7.1a13.37,13.37,0,0,1-7.5-3.7c-1.5-.8-3.1-1.6-4.7-2.4a22.47,22.47,0,0,1,1.2-2.1c3-4.7,7.5-7.7,12.6-7.5s9.4,3.4,12,8.3A24.67,24.67,0,0,1,846.9,603.5Z" transform="translate(0.01 -0.3)" style="fill:#262333"/><path d="M847.8,578.6a24.26,24.26,0,0,1-3.7,12.3c-3,4.7-7.5,7.7-12.6,7.5l-1-.1a13.37,13.37,0,0,1-7.5-3.7,18.82,18.82,0,0,1-3.5-4.5,25.4,25.4,0,0,1,.8-24.9c3-4.7,7.5-7.7,12.6-7.5s9.4,3.4,12,8.3A24.34,24.34,0,0,1,847.8,578.6Z" transform="translate(0.01 -0.3)" style="fill:#262333"/><ellipse cx="833.04" cy="553.29" rx="20.4" ry="15.6" transform="matrix(0.03, -1, 1, 0.03, 253.72, 1368.14)" style="fill:#262333"/><ellipse cx="833.81" cy="528.4" rx="20.4" ry="15.6" transform="translate(279.35 1344.8) rotate(-88.19)" style="fill:#262333"/><ellipse cx="834.59" cy="503.5" rx="20.4" ry="15.6" transform="translate(304.99 1321.46) rotate(-88.19)" style="fill:#262333"/><path d="M781.7,331.3a79.44,79.44,0,0,1-5.5-8.7l41.1-5.4-44.2-1.1a74.91,74.91,0,0,1,.4-59.1l58.3,32.6-53.4-41.9a74.52,74.52,0,0,1,126.7,78.5,77,77,0,0,1-6.3,8.7,74.2,74.2,0,0,1,8.1,13.9L853,374.7l57.2-17.2A74.62,74.62,0,0,1,896,427.1a74.52,74.52,0,1,1-117.1-3.7,74.4,74.4,0,0,1,2.8-92.1Z" transform="translate(0.01 -0.3)" style="fill:#262333"/><path d="M913.3,381.6a74.16,74.16,0,0,1-17.4,45.6,74.52,74.52,0,1,1-117.1-3.7C769.2,410.5,913.5,373.2,913.3,381.6Z" transform="translate(0.01 -0.3)" style="fill:#262333;opacity:0.10000000149011612;isolation:isolate"/></g><ellipse cx="193.51" cy="750.6" rx="57" ry="11" style="fill:#ffd500"/><ellipse cx="192.51" cy="745.9" rx="6.6" ry="8.7" style="fill:#3f3d56"/><ellipse cx="192.51" cy="735.3" rx="6.6" ry="8.7" style="fill:#3f3d56"/><ellipse cx="192.51" cy="724.7" rx="6.6" ry="8.7" style="fill:#3f3d56"/><ellipse cx="192.51" cy="714.1" rx="6.6" ry="8.7" style="fill:#3f3d56"/><ellipse cx="192.51" cy="703.5" rx="6.6" ry="8.7" style="fill:#3f3d56"/><ellipse cx="192.51" cy="692.8" rx="6.6" ry="8.7" style="fill:#3f3d56"/><ellipse cx="192.51" cy="682.2" rx="6.6" ry="8.7" style="fill:#3f3d56"/><path d="M217.4,609.8c.9-1.2,1.7-2.4,2.5-3.6l-17.4-2.9,18.9.2a31.57,31.57,0,0,0,.6-25.2l-25.3,13.1L220,574.2a31.83,31.83,0,1,0-55.1,31.9,30,30,0,0,0,2.5,3.7,31.28,31.28,0,0,0-3.6,5.8l22.6,11.8-24.1-8.1a32.14,32.14,0,0,0,5.1,29.9,31.83,31.83,0,1,0,50,.1,32,32,0,0,0,0-39.5Z" transform="translate(0.01 -0.3)" style="fill:#ffd500"/><path d="M160.6,629.5a32,32,0,0,0,6.8,19.7,31.83,31.83,0,1,0,50,.1C221.7,643.7,160.6,625.9,160.6,629.5Z" transform="translate(0.01 -0.3)" style="opacity:0.10000000149011612;isolation:isolate"/><path d="M346.5,517.2v226c-16.5-.8-33-1.8-49.5-2.9l-7.5-.5V517.2a8.75,8.75,0,0,1,8.8-8.8h39.4A8.81,8.81,0,0,1,346.5,517.2Z" transform="translate(0.01 -0.3)" style="fill:#262333"/><path d="M419.5,746V366.2a8.75,8.75,0,0,1,8.8-8.8h39.4a8.75,8.75,0,0,1,8.8,8.8h0V747Z" transform="translate(0.01 -0.3)" style="fill:#262333"/><path d="M549.5,747.2v-302a8.75,8.75,0,0,1,8.8-8.8h39.4a8.75,8.75,0,0,1,8.8,8.8h0V746.6Z" transform="translate(0.01 -0.3)" style="fill:#262333"/><path d="M736.5,221.2V743.5l-57,1.5V221.2a8.75,8.75,0,0,1,8.8-8.8h39.4a8.81,8.81,0,0,1,8.8,8.8Z" transform="translate(0.01 -0.3)" style="fill:#262333"/><path d="M866.5,326.2v413c-19,.9-38,1.6-57,2.2V326.2a8.75,8.75,0,0,1,8.8-8.8h39.4a8.81,8.81,0,0,1,8.8,8.8Z" transform="translate(0.01 -0.3)" style="fill:#262333"/><polyline points="318.51 385.1 448.51 240.1 578.51 313.1 708.51 89.1 838.51 196.1" style="fill:none;stroke:#ffd500;stroke-linecap:round;stroke-miterlimit:10;stroke-width:7px"/><circle cx="318.01" cy="385.1" r="28" style="fill:#ffd500"/><circle cx="448.01" cy="240.1" r="28" style="fill:#ffd500"/><circle cx="578.01" cy="313.1" r="28" style="fill:#ffd500"/><circle cx="708.01" cy="89.1" r="28" style="fill:#ffd500"/><circle cx="958.01" cy="327.1" r="28" style="fill:#ffd500"/><ellipse cx="233.71" cy="722.3" rx="18.7" ry="3.2" style="fill:#5a576e"/><path d="M849.6,344.6a9.34,9.34,0,0,0,2,4.8c1.5,1.6,3.6,2.4,5.6,3.4A22.36,22.36,0,0,1,868,365.2c3.3,9.7,3.8,20,8,29.4s9.2,18.4,12.9,28c2.1,5.5,3.7,11.1,6.8,16.1a26.32,26.32,0,0,0,5.6,6.4q-.3,5.25-.3,10.5a4,4,0,0,1,3.4,1.8,11.62,11.62,0,0,1,1.5,3.8c1.4,5.7-.3,11.7.9,17.4a88.59,88.59,0,0,1-3,47.6c-1.4,3.9-3.1,16.7-1.6,20.6,5.4-.5,10.3,2.8,15.3,5a21.08,21.08,0,0,1-.7,9c-1.8,5.3-1.8,11-1.8,16.6l.3,41.3c0,5.2.1,10.5,1.4,15.6,1.5,5.7,4.6,11.5,4.5,17.4-.3,12.7,5.7,24.8,5.3,37.4-.1,2.4-.4,4.8-.7,7.2a82.28,82.28,0,0,0,.5,19.2c1.8,12.7,6.6,25.1,5.4,37.8-.1.9-.4,2-1.2,2.3,1,1.1,2.1,2.3,3.1,3.3a2,2,0,0,1-.9.9,8.61,8.61,0,0,1-3.8,1,7.67,7.67,0,0,0-4.4,1.4,6.35,6.35,0,0,0-1.8,3.3,9.08,9.08,0,0,0,1.2,7.5,8.38,8.38,0,0,0,3.4,2.5c4.6,2,9.9.5,14.7-.9l18.9-5.7a6.17,6.17,0,0,0,3.1-1.6,3.46,3.46,0,0,0,.8-1.6c4.2,1,8.8-.2,13-1.5l18.9-5.7a6.17,6.17,0,0,0,3.1-1.6,3.57,3.57,0,0,0,.8-3c.1-.1.3-.1.4-.2,1.4-.7,3-1.9,2.7-3.5-.3-1-1.3-1.6-1.7-2.5a3.67,3.67,0,0,1,.7-3.5c.7-1,1.7-1.8,2.4-2.9,2.2-3.3.7-7.7-.1-11.6-1.8-8.3-.1-17.1-1.3-25.5-.4-2.8-1.1-5.7-1.6-8.5a171.05,171.05,0,0,1-2.3-20.2c-.7-9.7-3.4-19.2-1.9-28.8a107,107,0,0,0,.9-17,65.12,65.12,0,0,0-.5-10.8c-.4-2.7-1.1-5.3-1.4-8-.2-3-.3-6.1-.2-9.1a90.14,90.14,0,0,0-1.9-20.1c-2-9.1-5.8-17.8-7.4-26.9a9.36,9.36,0,0,1,1.6.4c.1-7-6.1-22.2-8.3-28.9a11.36,11.36,0,0,1-.6-2.5,18.57,18.57,0,0,1,.6-3.4c.3-2.4-1-4.7-1.3-7.1a17.59,17.59,0,0,1,.4-5.1c1.6-9,3.6-17.8,5.6-26.7a27.58,27.58,0,0,0,.9-9.9,12.1,12.1,0,0,1,3-9.8,11.83,11.83,0,0,0,2.2-2.8,6.58,6.58,0,0,0,.4-2.8,41.24,41.24,0,0,0-1.8-12.1c1.8-3.2,2.4-7.1,2.9-10.8,1.1-8.2,2.2-16.4,2.2-24.6a40.86,40.86,0,0,0-1.8-13,50.66,50.66,0,0,0-3.4-7.5c-5.3-10.1-10.3-20.8-16.9-30.1-2-2.8-.7-6.7-.6-10.2.2-4.2-1.5-8.2-3.1-12.1a18.55,18.55,0,0,0-3.8-6.5,6.06,6.06,0,0,0-4.4-2,6.61,6.61,0,0,0-4.7,2.9,15.43,15.43,0,0,0-2.8,11.6,22.42,22.42,0,0,0,5.1,10.9,24.93,24.93,0,0,0,4.4,4.2c1.7,5.3,3.3,10.5,5,15.8a190.06,190.06,0,0,0,9,24.6c1.1,2.3,2.3,4.6,2.4,7.1.1,2.7-1,5.3-1.9,7.9a56.16,56.16,0,0,0-3.2,16.7,2.18,2.18,0,0,0-.8.5c-3.2,2.1-4.1,6.5-7.4,8.4-1.9,1.1-4.2,1-6.4,1.5a1.42,1.42,0,0,0-.6.2,5,5,0,0,1-.2-1.2v-.8a33.45,33.45,0,0,0,12.4-11.8,14,14,0,0,0,1.5-3,12.8,12.8,0,0,0,.2-3.9,71.52,71.52,0,0,0-1.8-12.9,21.84,21.84,0,0,0-6.7-10.9c-1.6-1.3-3.5-2.3-5.2-3.6-3.2-2.6-5.4-6.4-9-8.3a10.89,10.89,0,0,0-13.6,3.5,8.18,8.18,0,0,1-2,2.5,17.38,17.38,0,0,0-1.9,1,3.7,3.7,0,0,0-.8,3.9,35.57,35.57,0,0,1,1.1,8.6,21,21,0,0,0-.1,27.2c0,1.9,0,3.7-.1,5.6a4.1,4.1,0,0,1-.1,1.1,6.91,6.91,0,0,1-3-2c-1.1-1.4-1.3-3.5-2.7-4.6a7.74,7.74,0,0,0-3.3-1.2,21.87,21.87,0,0,1-8-3.8c-1.8-1.4-3.8-3.3-5.9-3.7a129.94,129.94,0,0,0-13-19.8,40.22,40.22,0,0,1-3.4-4.7c-2.2-3.8-2.8-8.2-4.2-12.3-3.8-11.5-13.3-20.8-15.6-32.7-.8-4.3-3.6-8.1-5.5-12.1-1.3-2.7-2.7-5.5-5.2-7.1-3.3-2-7.8-1.1-10.5,1.6A12.37,12.37,0,0,0,849.6,344.6ZM968.3,749.3a8.61,8.61,0,0,1-3.8,1l-2,.3c-.3-2.1-.4-4.2-.5-6.3-.5-6.8-1.6-13.5-2.6-20.3-1.1-7-1.6-14.7-4-21.4-3.8-10.9-7.7-22.2-7.2-33.8.1-2.6.4-5.2.6-7.9.3-6.5-.6-13.1,1-19.4.7-2.9,1.9-5.6,2.4-8.5a41.71,41.71,0,0,0,.1-7.9,104,104,0,0,1,2.3-27.3c1.9,2.4,2.5,5.6,3,8.6l3.8,20.3c2.2,12.1,4.2,24.9,10.1,35.6-.8,3.9-1.7,8-.3,11.7.6,1.6,1.6,3,2.2,4.6,1,2.7.9,5.7,1.2,8.5.7,6,3.1,11.9,1.3,17.7a82.12,82.12,0,0,0-3.6,18.4,46,46,0,0,1-.6,5.2c-.3,1.5-.8,3-1.1,4.6a15.2,15.2,0,0,0,.3,6.7,16.06,16.06,0,0,1,.8,3.8c0,1.3-1.6,2.2-2.8,2.4.4.5.8.9,1.2,1.4C969.5,747.9,969,748.7,968.3,749.3Z" transform="translate(0.01 -0.3)" style="fill:url(#a)"/><path d="M928.8,760.8a7.67,7.67,0,0,0-4.4,1.4,6,6,0,0,0-1.8,3.3,8.86,8.86,0,0,0,1.2,7.4,8.38,8.38,0,0,0,3.4,2.5c4.6,2,9.9.5,14.7-.9l18.9-5.7a6.17,6.17,0,0,0,3.1-1.6,4.2,4.2,0,0,0,.1-4.9,9.67,9.67,0,0,0-4-3.2c-5.9-2.9-12.5-3.5-18.9-3.6-2.4,0-4.8-.6-6.4,1.3-.9,1-.7,2.1-2,2.9A7.65,7.65,0,0,1,928.8,760.8Z" transform="translate(0.01 -0.3)" style="fill:#3f3d56"/><path d="M964.5,750.4a7.67,7.67,0,0,0-4.4,1.4,6.35,6.35,0,0,0-1.8,3.3,8.8,8.8,0,0,0,1.2,7.4,8.38,8.38,0,0,0,3.4,2.5c4.6,2,9.9.5,14.7-.9l18.9-5.7a6.17,6.17,0,0,0,3.1-1.6,4.05,4.05,0,0,0,.1-4.8,9.67,9.67,0,0,0-4-3.2c-5.9-2.9-12.5-3.5-19-3.6-2.4,0-4.8-.6-6.4,1.3-.9,1-.7,2.1-2,2.9A7.46,7.46,0,0,1,964.5,750.4Z" transform="translate(0.01 -0.3)" style="fill:#3f3d56"/><path d="M948.1,545.5a234,234,0,0,1,33.5-.9,8.33,8.33,0,0,1,2.2.3c2.5,1,2.8,4.2,3.1,6.8,1,10.7,5.7,20.6,8,31.1a89.81,89.81,0,0,1,1.9,20,67.62,67.62,0,0,0,.2,9c.3,2.7,1,5.3,1.4,8a78.1,78.1,0,0,1,.5,10.8,119.66,119.66,0,0,1-.9,16.9c-1.5,9.5,1.2,19,1.9,28.6a169.39,169.39,0,0,0,2.3,20.1c.6,2.8,1.2,5.6,1.6,8.4,1.1,8.4-.5,17.1,1.3,25.4.8,3.9,2.3,8.2.1,11.6-.7,1-1.7,1.8-2.4,2.9a3.72,3.72,0,0,0-.7,3.5c.4.9,1.4,1.5,1.7,2.5.4,1.5-1.2,2.8-2.7,3.4-10.8,4.9-24.8,1.5-32.2-7.9,1.3-.2,2.8-1.1,2.8-2.4a15.25,15.25,0,0,0-.8-3.7,14.75,14.75,0,0,1-.3-6.6c.3-1.5.8-3,1.1-4.5a44.29,44.29,0,0,0,.6-5.1,86.29,86.29,0,0,1,3.6-18.2c1.8-5.8-.7-11.6-1.3-17.6-.3-2.8-.2-5.8-1.2-8.5-.6-1.6-1.6-3-2.2-4.6-1.4-3.7-.5-7.8.3-11.6-5.9-10.7-7.9-23.4-10.1-35.4l-3.8-20.2c-.6-3-1.2-6.1-3-8.5a108,108,0,0,0-2.3,27.2,41.71,41.71,0,0,1-.1,7.9c-.5,2.9-1.7,5.6-2.4,8.5-1.5,6.3-.6,12.8-1,19.3-.1,2.6-.5,5.2-.6,7.8-.5,11.5,3.4,22.7,7.2,33.6,2.3,6.7,2.9,14.3,4,21.2,1,6.7,2.1,13.4,2.6,20.1.5,6.2.7,12.9,4.6,17.8-3.5,2.3-7.2,4.6-11.3,5.4a20.56,20.56,0,0,1-13.9-2.7,42.83,42.83,0,0,1-11-9.3c.8-.3,1.1-1.5,1.2-2.3,1.2-12.7-3.6-25-5.4-37.6a81.29,81.29,0,0,1-.5-19.1c.2-2.4.6-4.8.7-7.2.5-12.5-5.5-24.6-5.3-37.1.1-5.9-3-11.7-4.5-17.3-1.3-5-1.3-10.3-1.4-15.5l-.3-41c0-5.5,0-11.2,1.8-16.5,2.2-6.3-.3-13.5-.7-20.2A84.66,84.66,0,0,0,948.1,545.5Z" transform="translate(0.01 -0.3)" style="fill:#696791"/><path d="M912.4,427.7a129.94,129.94,0,0,0-15.3-24.2,49.55,49.55,0,0,1-3.4-4.6c-2.2-3.7-2.8-8.1-4.2-12.2-3.8-11.4-13.3-20.6-15.6-32.5-.8-4.3-3.6-8-5.5-12-1.3-2.7-2.7-5.5-5.2-7-3.3-2-7.8-1.1-10.5,1.6a12.29,12.29,0,0,0-3.2,10.5,9,9,0,0,0,2,4.7c1.5,1.6,3.6,2.4,5.6,3.4a22.5,22.5,0,0,1,10.8,12.3c3.3,9.6,3.8,19.9,8,29.2s9.2,18.3,12.9,27.8c2.1,5.4,3.7,11,6.8,16s7.8,9.2,13.6,9.9a35.59,35.59,0,0,1,1.6-10.7C912,436.1,914.3,431.5,912.4,427.7Z" transform="translate(0.01 -0.3)" style="fill:#a0616a"/><path d="M974.4,435.2a52.81,52.81,0,0,1,3.3-20.8c.9-2.5,2-5.1,1.9-7.9-.1-2.5-1.3-4.8-2.4-7.1-3.8-7.9-6.4-16.2-9-24.5l-5-15.6a28.51,28.51,0,0,1-4.4-4.1,22,22,0,0,1-5.1-10.9,15.74,15.74,0,0,1,2.8-11.5,7,7,0,0,1,4.7-2.9,6.06,6.06,0,0,1,4.4,2,23.06,23.06,0,0,1,3.8,6.4c1.6,3.8,3.3,7.8,3.1,12-.1,3.5-1.4,7.3.6,10.1,6.6,9.2,11.7,19.8,16.9,29.9a50.66,50.66,0,0,1,3.4,7.5,40.64,40.64,0,0,1,1.8,12.9c0,8.2-1.1,16.4-2.2,24.5-.7,5.1-1.6,10.6-5.5,14C983.5,444.2,979.5,439.2,974.4,435.2Z" transform="translate(0.01 -0.3)" style="fill:#a0616a"/><circle cx="948.91" cy="418.1" r="20.8" style="fill:#a0616a"/><path d="M959,440.2c.5,3.8,2.5,7.1,4.5,10.4,1.2,2,2.7,4.1,5,4.4a98.68,98.68,0,0,1-18.8,7.6,22.65,22.65,0,0,1-6.9,1.1,14.2,14.2,0,0,1-5.7-1.5,28.63,28.63,0,0,1-16.2-18.9,32.93,32.93,0,0,0,7.7-.6,4.54,4.54,0,0,0,4.6-5.2c.1-3.5.1-6.9,0-10.4a40.78,40.78,0,0,1,15.1,1.9c2,.6,4,1.4,6,1.9,1.3.3,4.7,0,5.7.7C961.3,432.6,958.6,437.7,959,440.2Z" transform="translate(0.01 -0.3)" style="fill:#a0616a"/><path d="M949.8,452.8a13.11,13.11,0,0,1,9.9-11.6c2.1-.5,4.5-.4,6.4-1.5,3.3-1.8,4.3-6.3,7.4-8.3s7.6-.9,10.4,1.7,4.1,6.3,5.3,9.9a49.11,49.11,0,0,1,2.7,15.2,9,9,0,0,1-.4,2.8,11.83,11.83,0,0,1-2.2,2.8,12.1,12.1,0,0,0-3,9.8,27,27,0,0,1-.9,9.8c-2,8.8-4,17.6-5.6,26.5a16.66,16.66,0,0,0-.4,5c.3,2.4,1.6,4.7,1.3,7.1a20.21,20.21,0,0,0-.6,3.4,10.15,10.15,0,0,0,.6,2.5c2.3,6.6,8.4,21.7,8.3,28.7-10.7-2.7-26.3-3.3-37.3-3.4-3,0-6,.1-9.1.4-7.2.8-14.6,2.9-21.6.9-6.5-1.8-12.3-7-19-6.3-1.5-3.8.3-16.6,1.6-20.4a87.56,87.56,0,0,0,3-47.3c-1.2-5.7.5-11.7-.9-17.3a12,12,0,0,0-1.5-3.7,4.17,4.17,0,0,0-3.4-1.8,127.71,127.71,0,0,1,2.5-26.9c.7-3.1,2-6.9,5.2-7.4,2.9-.5,5.3,1.9,7.6,3.7a21.87,21.87,0,0,0,8,3.8,7.74,7.74,0,0,1,3.3,1.2c1.4,1.1,1.6,3.2,2.7,4.6,2,2.5,6.5,2.3,7.9,5.1a25.82,25.82,0,0,1,.8,2.6,10,10,0,0,0,3.3,4.3A20.38,20.38,0,0,0,949.8,452.8Z" transform="translate(0.01 -0.3)" style="fill:#f86d70"/><path d="M932.1,396.3a3.66,3.66,0,0,1,.8-3.9c.5-.4,1.3-.6,1.9-1a9.58,9.58,0,0,0,2-2.5,10.92,10.92,0,0,1,13.6-3.5c3.6,1.9,5.8,5.7,9,8.2,1.6,1.3,3.5,2.3,5.2,3.6a21.14,21.14,0,0,1,6.7,10.8,55.65,55.65,0,0,1,1.8,12.8,10.27,10.27,0,0,1-.2,3.9,8.47,8.47,0,0,1-1.5,3c-3.3,5-7.7,9.5-13.1,12.1s-12.1,3-17.5.3a2.76,2.76,0,0,1-1.3-1.1,3.6,3.6,0,0,1-.2-2.3,16.18,16.18,0,0,0-1.7-8.9c-1-2-2.5-3.7-3.3-5.8a19.29,19.29,0,0,1-.9-7.2C933.2,408.6,933.6,402.4,932.1,396.3Z" transform="translate(0.01 -0.3)" style="fill:#2d293d"/></svg>