<svg xmlns="http://www.w3.org/2000/svg" viewBox="0 0 1151.89 721.79"><title>no_connection</title><path d="M577,2.8c363.2,21.5,565.6,123.5,574,349.5,16.5,447.1-201.4,362.2-579,364.5C149.8,719.4,35.9,612.8,3,352.3-27.6,109.9,175.4-21,577,2.8Z" transform="translate(0.02 -0.03)" style="fill:#5a576e"/><path d="M3,53.9c0,77.5,48.6,140.2,108.7,140.2" transform="translate(0.02 -0.03)" style="fill:#2f2e41"/><path d="M111.7,194.1C111.7,115.7,166,52.3,233,52.3" transform="translate(0.02 -0.03)" style="fill:#ffd500"/><path d="M42.4,60.9c0,73.6,31,133.2,69.3,133.2" transform="translate(0.02 -0.03)" style="fill:#ffd500"/><path d="M111.7,194.1C111.7,94,174.4,12.9,251.9,12.9" transform="translate(0.02 -0.03)" style="fill:#2f2e41"/><path d="M88.8,195.1s15.4-.5,20.1-3.8,23.7-7.3,24.9-2,23.2,26.4,5.8,26.5-40.4-2.7-45.1-5.5S88.8,195.1,88.8,195.1Z" transform="translate(0.02 -0.03)" style="fill:#a8a8a8"/><path d="M139.8,214.1c-17.4.1-40.4-2.7-45.1-5.5-3.5-2.2-4.9-9.9-5.4-13.4h-.5s1,12.4,5.6,15.3,27.7,5.7,45.1,5.5c5,0,6.8-1.8,6.7-4.5C145.5,213,143.6,214,139.8,214.1Z" transform="translate(0.02 -0.03)" style="opacity:0.20000000298023224;isolation:isolate"/><ellipse cx="201.62" cy="427.27" rx="187" ry="25.4" style="fill:#3f3d56"/><ellipse cx="201.62" cy="427.27" rx="157" ry="21.4" style="opacity:0.10000000149011612;isolation:isolate"/><ellipse cx="839.62" cy="663.27" rx="283" ry="38.5" style="fill:#3f3d56"/><ellipse cx="313.62" cy="648.27" rx="170" ry="23.1" style="fill:#3f3d56"/><path d="M465.6,628.8c90,23,263-30,282-90" transform="translate(0.02 -0.03)" style="fill:none;stroke:#2f2e41;stroke-miterlimit:10;stroke-width:2px"/><path d="M312.6,261.8s130-36,138,80-107,149-17,172" transform="translate(0.02 -0.03)" style="fill:none;stroke:#2f2e41;stroke-miterlimit:10;stroke-width:2px"/><path d="M187,540s39.1-10.8,41.5,24-32.2,44.8-5.1,51.7" transform="translate(0.02 -0.03)" style="fill:none;stroke:#2f2e41;stroke-miterlimit:10;stroke-width:2px"/><path d="M781.7,566l-7.9,50.3s-38.8,20.6-11.5,21.2,155.7,0,155.7,0,24.8,0-14.5-21.8L895.6,563Z" transform="translate(0.02 -0.03)" style="fill:#2f2e41"/><path d="M756.8,637c6.2-5.5,17-11.3,17-11.3l7.9-50.3,113.9.1,7.9,49.6c9.2,5.1,14.9,9,18.2,12,5.1-1.2,10.6-5.4-18.2-21.4L895.6,563l-113.9,3-7.9,50.3S741.2,633.6,756.8,637Z" transform="translate(0.02 -0.03)" style="opacity:0.10000000149011612;isolation:isolate"/><path d="M599.5,215.5h477.2a18,18,0,0,1,18,18V554.9a18,18,0,0,1-18,18H599.5a18,18,0,0,1-18-18V233.5A17.86,17.86,0,0,1,599.5,215.5Z" transform="translate(0.02 -0.03)" style="fill:#2f2e41"/><rect x="598.72" y="234.47" width="478.7" height="267.8" style="fill:#3f3d56"/><circle cx="838.12" cy="226.07" r="3" style="fill:#f2f2f2"/><path d="M1094.7,523.6v31.3a18,18,0,0,1-18,18H599.5a18,18,0,0,1-18-18h0V523.6Z" transform="translate(0.02 -0.03)" style="fill:#2f2e41"/><polygon points="972.02 670.17 972.02 676.27 646.02 676.27 646.02 671.37 646.42 670.17 654.52 648.37 965.32 648.37 972.02 670.17" style="fill:#2f2e41"/><path d="M1097.4,664.3c-.6,2.5-2.8,5.2-7.9,7.8-18.2,9.1-55.1-2.4-55.1-2.4s-28.5-4.8-28.5-17.6c.8-.5,1.6-1,2.5-1.5,7.6-4,33-14,77.9.4a18.15,18.15,0,0,1,8.5,5.6C1096.7,658.7,1098.1,661.4,1097.4,664.3Z" transform="translate(0.02 -0.03)" style="fill:#2f2e41"/><path d="M1097.4,664.3c-22.3,8.5-42.1,9.2-62.4-5-10.3-7.1-19.6-8.9-26.6-8.8,7.6-4,33-14,77.9.4a18.15,18.15,0,0,1,8.5,5.6C1096.7,658.7,1098.1,661.4,1097.4,664.3Z" transform="translate(0.02 -0.03)" style="opacity:0.10000000149011612;isolation:isolate"/><ellipse cx="1069.52" cy="656.87" rx="7.9" ry="2.4" style="fill:#f2f2f2"/><circle cx="838.12" cy="548.37" r="11.5" style="fill:#f2f2f2"/><polygon points="972.02 670.17 972.02 676.27 646.02 676.27 646.02 671.37 646.42 670.17 972.02 670.17" style="opacity:0.10000000149011612;isolation:isolate"/><rect x="111.62" y="161.77" width="208" height="242" style="fill:#2f2e41"/><rect x="90.62" y="137.77" width="250" height="86" style="fill:#3f3d56"/><rect x="90.62" y="239.77" width="250" height="86" style="fill:#3f3d56"/><rect x="90.62" y="341.77" width="250" height="86" style="fill:#3f3d56"/><rect x="274.62" y="152.77" width="16" height="16" style="fill:#ffd500;opacity:0.4000000059604645;isolation:isolate"/><rect x="297.62" y="152.77" width="16" height="16" style="fill:#ffd500;opacity:0.800000011920929;isolation:isolate"/><rect x="320.62" y="152.77" width="16" height="16" style="fill:#ffd500"/><rect x="274.62" y="253.77" width="16" height="16" style="fill:#ffd500;opacity:0.4000000059604645;isolation:isolate"/><rect x="297.62" y="253.77" width="16" height="16" style="fill:#ffd500;opacity:0.800000011920929;isolation:isolate"/><rect x="320.62" y="253.77" width="16" height="16" style="fill:#ffd500"/><rect x="274.62" y="354.77" width="16" height="16" style="fill:#ffd500;opacity:0.4000000059604645;isolation:isolate"/><rect x="297.62" y="354.77" width="16" height="16" style="fill:#ffd500;opacity:0.800000011920929;isolation:isolate"/><rect x="320.62" y="354.77" width="16" height="16" style="fill:#ffd500"/><circle cx="319.62" cy="540.77" r="79" style="fill:#2f2e41"/><rect x="283.62" y="602.77" width="24" height="43" style="fill:#2f2e41"/><rect x="331.62" y="602.77" width="24" height="43" style="fill:#2f2e41"/><ellipse cx="303.62" cy="646.27" rx="20" ry="7.5" style="fill:#2f2e41"/><ellipse cx="351.62" cy="645.27" rx="20" ry="7.5" style="fill:#2f2e41"/><circle cx="321.62" cy="520.77" r="27" style="fill:#fff"/><circle cx="321.62" cy="520.77" r="9" style="fill:#3f3d56"/><path d="M243,467.3c-6.4-28.6,14-57.4,45.5-64.5s62.3,10.4,68.6,39-14.5,39.1-46.1,46.1S249.4,495.9,243,467.3Z" transform="translate(0.02 -0.03)" style="fill:#ffd500"/><ellipse cx="388.8" cy="513.59" rx="39.5" ry="12.4" transform="translate(-170.72 194.4) rotate(-23.17)" style="fill:#2f2e41"/><ellipse cx="240.8" cy="566.59" rx="39.5" ry="12.4" transform="translate(-203.51 140.44) rotate(-23.17)" style="fill:#2f2e41"/><path d="M365.6,563.8c0,7.7-19.9,23-42,23s-43-14.3-43-22,20.9-6,43-6S365.6,556,365.6,563.8Z" transform="translate(0.02 -0.03)" style="fill:#fff"/></svg>