<?xml version="1.0" encoding="utf-8"?>
<!-- Generator: Adobe Illustrator 24.0.1, SVG Export Plug-In . SVG Version: 6.00 Build 0)  -->
<svg version="1.1" id="aa03ddf9-f8f2-4819-a4ce-be9b0a220741"
	 xmlns="http://www.w3.org/2000/svg" xmlns:xlink="http://www.w3.org/1999/xlink" x="0px" y="0px" viewBox="0 0 1151.9 721.8"
	 style="enable-background:new 0 0 1151.9 721.8;" xml:space="preserve">
<style type="text/css">
	.st0{fill:#5A576E;}
	.st1{fill:#2F2E41;}
	.st2{fill:#FFD500;}
	.st3{fill:#A8A8A8;}
	.st4{opacity:0.2;enable-background:new    ;}
	.st5{fill:#3F3D56;}
	.st6{opacity:0.1;enable-background:new    ;}
	.st7{fill:none;stroke:#2F2E41;stroke-width:2;stroke-miterlimit:10;}
	.st8{fill:#F2F2F2;}
	.st9{opacity:0.4;fill:#FFD500;enable-background:new    ;}
	.st10{opacity:0.8;fill:#FFD500;enable-background:new    ;}
	.st11{fill:#FFFFFF;}
</style>
<title>server down</title>
<path class="st0" d="M577,2.8c363.2,21.5,565.6,123.5,574,349.5c16.5,447.1-201.4,362.2-579,364.5c-422.2,2.6-536.1-104-569-364.5
	C-27.6,109.9,175.4-21,577,2.8z"/>
<path class="st1" d="M3,53.9c0,77.5,48.6,140.2,108.7,140.2"/>
<path class="st2" d="M111.7,194.1c0-78.4,54.3-141.8,121.3-141.8"/>
<path class="st2" d="M42.4,60.9c0,73.6,31,133.2,69.3,133.2"/>
<path class="st1" d="M111.7,194.1c0-100.1,62.7-181.2,140.2-181.2"/>
<path class="st3" d="M88.8,195.1c0,0,15.4-0.5,20.1-3.8s23.7-7.3,24.9-2s23.2,26.4,5.8,26.5s-40.4-2.7-45.1-5.5
	S88.8,195.1,88.8,195.1z"/>
<path class="st4" d="M139.8,214.1c-17.4,0.1-40.4-2.7-45.1-5.5c-3.5-2.2-4.9-9.9-5.4-13.4c-0.3,0-0.5,0-0.5,0s1,12.4,5.6,15.3
	s27.7,5.7,45.1,5.5c5,0,6.8-1.8,6.7-4.5C145.5,213,143.6,214,139.8,214.1z"/>
<ellipse class="st5" cx="201.6" cy="427.3" rx="187" ry="25.4"/>
<ellipse class="st6" cx="201.6" cy="427.3" rx="157" ry="21.4"/>
<ellipse class="st5" cx="839.6" cy="663.3" rx="283" ry="38.5"/>
<ellipse class="st5" cx="313.6" cy="648.3" rx="170" ry="23.1"/>
<path class="st7" d="M465.6,628.8c90,23,263-30,282-90"/>
<path class="st7" d="M312.6,261.8c0,0,130-36,138,80s-107,149-17,172"/>
<path class="st7" d="M187,540c0,0,39.1-10.8,41.5,24c2.4,34.9-32.2,44.8-5.1,51.7"/>
<path class="st1" d="M781.7,566l-7.9,50.3c0,0-38.8,20.6-11.5,21.2s155.7,0,155.7,0s24.8,0-14.5-21.8l-7.9-52.7L781.7,566z"/>
<path class="st6" d="M756.8,637c6.2-5.5,17-11.3,17-11.3l7.9-50.3l113.9,0.1l7.9,49.6c9.2,5.1,14.9,9,18.2,12
	c5.1-1.2,10.6-5.4-18.2-21.4l-7.9-52.7l-113.9,3l-7.9,50.3C773.8,616.3,741.2,633.6,756.8,637z"/>
<path class="st1" d="M599.5,215.5h477.2c10,0,18,8.1,18,18v321.4c0,10-8.1,18-18,18H599.5c-10,0-18-8.1-18-18V233.5
	C581.4,223.5,589.5,215.5,599.5,215.5z"/>
<rect x="598.7" y="234.5" class="st5" width="478.7" height="267.8"/>
<circle class="st8" cx="838.1" cy="226.1" r="3"/>
<path class="st1" d="M1094.7,523.6v31.3c0,10-8.1,18-18,18c0,0,0,0,0,0H599.5c-10,0-18-8.1-18-18c0,0,0,0,0,0v-31.3H1094.7z"/>
<polygon class="st1" points="972,670.2 972,676.3 646,676.3 646,671.4 646.4,670.2 654.5,648.4 965.3,648.4 "/>
<path class="st1" d="M1097.4,664.3c-0.6,2.5-2.8,5.2-7.9,7.8c-18.2,9.1-55.1-2.4-55.1-2.4s-28.5-4.8-28.5-17.6
	c0.8-0.5,1.6-1,2.5-1.5c7.6-4,33-14,77.9,0.4c3.3,1,6.3,3,8.5,5.6C1096.7,658.7,1098.1,661.4,1097.4,664.3z"/>
<path class="st6" d="M1097.4,664.3c-22.3,8.5-42.1,9.2-62.4-5c-10.3-7.1-19.6-8.9-26.6-8.8c7.6-4,33-14,77.9,0.4
	c3.3,1,6.3,3,8.5,5.6C1096.7,658.7,1098.1,661.4,1097.4,664.3z"/>
<ellipse class="st8" cx="1069.5" cy="656.9" rx="7.9" ry="2.4"/>
<circle class="st8" cx="838.1" cy="548.4" r="11.5"/>
<polygon class="st6" points="972,670.2 972,676.3 646,676.3 646,671.4 646.4,670.2 "/>
<rect x="111.6" y="161.8" class="st1" width="208" height="242"/>
<rect x="90.6" y="137.8" class="st5" width="250" height="86"/>
<rect x="90.6" y="239.8" class="st5" width="250" height="86"/>
<rect x="90.6" y="341.8" class="st5" width="250" height="86"/>
<rect x="274.6" y="152.8" class="st9" width="16" height="16"/>
<rect x="297.6" y="152.8" class="st10" width="16" height="16"/>
<rect x="320.6" y="152.8" class="st2" width="16" height="16"/>
<rect x="274.6" y="253.8" class="st9" width="16" height="16"/>
<rect x="297.6" y="253.8" class="st10" width="16" height="16"/>
<rect x="320.6" y="253.8" class="st2" width="16" height="16"/>
<rect x="274.6" y="354.8" class="st9" width="16" height="16"/>
<rect x="297.6" y="354.8" class="st10" width="16" height="16"/>
<rect x="320.6" y="354.8" class="st2" width="16" height="16"/>
<circle class="st1" cx="319.6" cy="540.8" r="79"/>
<rect x="283.6" y="602.8" class="st1" width="24" height="43"/>
<rect x="331.6" y="602.8" class="st1" width="24" height="43"/>
<ellipse class="st1" cx="303.6" cy="646.3" rx="20" ry="7.5"/>
<ellipse class="st1" cx="351.6" cy="645.3" rx="20" ry="7.5"/>
<circle class="st11" cx="321.6" cy="520.8" r="27"/>
<circle class="st5" cx="321.6" cy="520.8" r="9"/>
<path class="st2" d="M243,467.3c-6.4-28.6,14-57.4,45.5-64.5s62.3,10.4,68.6,39s-14.5,39.1-46.1,46.1S249.4,495.9,243,467.3z"/>
<ellipse transform="matrix(0.9193 -0.3935 0.3935 0.9193 -170.7288 194.4292)" class="st1" cx="388.8" cy="513.6" rx="39.5" ry="12.4"/>
<ellipse transform="matrix(0.9193 -0.3935 0.3935 0.9193 -203.5219 140.4696)" class="st1" cx="240.8" cy="566.6" rx="39.5" ry="12.4"/>
<path class="st11" d="M365.6,563.8c0,7.7-19.9,23-42,23s-43-14.3-43-22s20.9-6,43-6S365.6,556,365.6,563.8z"/>
</svg>
